<svg width="101" height="101" viewBox="0 0 101 101" fill="none" xmlns="http://www.w3.org/2000/svg">
<path d="M14.3956 24.4582C12.864 24.4582 11.6324 25.6933 11.6324 27.2249V80.4407C11.6324 81.9723 12.864 83.2074 14.3956 83.2074H50.2424H52.7541H88.6009C90.1325 83.2074 91.3641 81.9723 91.3641 80.4407V27.2249C91.3641 25.6933 90.1325 24.4582 88.6009 24.4582H52.7541H50.2424H14.3956Z" fill="url(#paint0_linear)"/>
<path d="M39.2509 16.8838C39.0371 16.8782 38.7788 16.887 38.4431 16.887H13.0912C12.2964 16.887 11.6555 17.5324 11.6555 18.3325V27.1429C11.6543 27.1763 11.6457 27.2074 11.6457 27.241V80.5252C11.6457 82.0587 12.8822 83.2952 14.4157 83.2952H88.7872C90.3207 83.2952 91.5539 82.0587 91.5539 80.5252V27.241C91.5539 25.7075 90.3207 24.471 88.7872 24.471H44.3788C44.3524 24.4358 44.3348 24.417 44.3068 24.3795C43.2821 22.9989 41.7346 19.277 40.7258 17.9303C40.1185 17.046 39.8923 16.9006 39.2509 16.8838L39.2509 16.8838Z" fill="url(#paint1_linear)"/>
<path d="M16.3851 19.8757H36.6735C37.2506 19.8757 37.7151 20.3403 37.7151 20.9174V23.2278C37.7151 23.8049 37.2506 24.2694 36.6735 24.2694H16.3851C15.808 24.2694 15.3434 23.8049 15.3434 23.2278V20.9174C15.3434 20.3403 15.808 19.8757 16.3851 19.8757V19.8757Z" fill="url(#paint2_linear)"/>
<path d="M12.3879 26.9467C11.0579 26.9467 9.898 28.0799 9.98845 29.4776L13.1385 78.1573C13.229 79.5551 14.208 80.6882 15.538 80.6882H46.6665H55.7856H86.9141C88.2441 80.6882 89.2231 79.5551 89.3136 78.1573L92.4636 29.4776C92.5541 28.0799 91.3941 26.9467 90.0642 26.9467H55.7856H46.6665H12.3879Z" fill="url(#paint3_linear)"/>
<path opacity="0.3" fill-rule="evenodd" clip-rule="evenodd" d="M15.2939 30.7094C13.2654 30.7094 11.6324 32.3044 11.6324 34.2858L14.1531 74.9231V76.1517C14.1531 77.1585 14.9828 77.9689 16.0135 77.9689H86.3357C87.3665 77.9689 88.1965 77.1585 88.1965 76.1517L90.7168 34.2858C90.7168 32.3044 89.0838 30.7094 87.0554 30.7094H15.2939H15.2939Z" fill="black"/>
<path d="M11.4365 30.5726C10.0729 30.5726 8.90663 31.7014 8.97632 33.0968L11.3658 80.9424C11.4355 82.3378 12.4624 83.4666 13.826 83.4666H46.4417H55.7918L89.2065 83.3668C90.5701 83.3626 91.6119 82.2386 91.6667 80.8425L93.5396 33.0968C93.5944 31.7007 92.4431 30.5726 91.0794 30.5726H55.933H46.583L11.4365 30.5726Z" fill="url(#paint4_linear)"/>
<g clip-path="url(#clip0)">
<path fill-rule="evenodd" clip-rule="evenodd" d="M41.8048 34.6253H62.5649V55.3853H41.8048V34.6253Z" fill="#E4D7FF"/>
<path d="M62.5647 56.25H41.8046C41.3265 56.25 40.9394 55.8629 40.9394 55.3853V34.6253C40.9394 34.1472 41.3265 33.7601 41.8046 33.7601H62.5647C63.0428 33.7601 63.4293 34.1472 63.4293 34.6253V55.3853C63.4293 55.8629 63.0428 56.25 62.5647 56.25ZM42.6693 54.5201H61.6995V35.49H42.6693V54.5201Z" fill="#4A00A8"/>
<path fill-rule="evenodd" clip-rule="evenodd" d="M66.8895 34.6253H87.6496V55.3853H66.8895V34.6253Z" fill="#CA51DE"/>
<path d="M87.6494 56.25H66.8893C66.4112 56.25 66.0242 55.8629 66.0242 55.3853V34.6253C66.0242 34.1472 66.4112 33.7601 66.8893 33.7601H87.6494C88.1275 33.7601 88.5141 34.1472 88.5141 34.6253V55.3853C88.5141 55.8629 88.1275 56.25 87.6494 56.25ZM67.754 54.5201H86.7842V35.49H67.754V54.5201Z" fill="#4A00A8"/>
<path fill-rule="evenodd" clip-rule="evenodd" d="M41.8048 34.6253H62.5649V55.3853H41.8048V34.6253Z" fill="#E4D7FF"/>
<path d="M62.5647 56.25H41.8046C41.3265 56.25 40.9394 55.8629 40.9394 55.3853V34.6253C40.9394 34.1472 41.3265 33.7601 41.8046 33.7601H62.5647C63.0428 33.7601 63.4293 34.1472 63.4293 34.6253V55.3853C63.4293 55.8629 63.0428 56.25 62.5647 56.25ZM42.6693 54.5201H61.6995V35.49H42.6693V54.5201Z" fill="#4A00A8"/>
<path fill-rule="evenodd" clip-rule="evenodd" d="M41.8047 52.7903H62.5647V55.3854H41.8047V52.7903Z" fill="#4A00A8"/>
<path d="M62.5645 56.2501H41.8045C41.3264 56.2501 40.9393 55.863 40.9393 55.3854V52.7903C40.9393 52.3127 41.3264 51.9252 41.8045 51.9252H62.5645C63.0426 51.9252 63.4292 52.3127 63.4292 52.7903V55.3854C63.4292 55.863 63.0426 56.2501 62.5645 56.2501ZM42.6692 54.5202H61.6993V53.655H42.6692V54.5202Z" fill="#4A00A8"/>
<path fill-rule="evenodd" clip-rule="evenodd" d="M66.8894 52.7903H87.6494V55.3854H66.8894V52.7903Z" fill="#4A00A8"/>
<path d="M87.6492 56.2501H66.8892C66.4111 56.2501 66.024 55.863 66.024 55.3854V52.7903C66.024 52.3127 66.4111 51.9252 66.8892 51.9252H87.6492C88.1273 51.9252 88.5139 52.3127 88.5139 52.7903V55.3854C88.5139 55.863 88.1273 56.2501 87.6492 56.2501ZM67.7539 54.5202H86.784V53.655H67.7539V54.5202Z" fill="#4A00A8"/>
<path fill-rule="evenodd" clip-rule="evenodd" d="M41.8048 59.7103H62.5649V80.4703H41.8048V59.7103Z" fill="#CA51DE"/>
<path d="M62.5647 81.335H41.8046C41.3265 81.335 40.9394 80.948 40.9394 80.4703V59.7103C40.9394 59.2327 41.3265 58.8451 41.8046 58.8451H62.5647C63.0428 58.8451 63.4294 59.2327 63.4294 59.7103V80.4703C63.4294 80.948 63.0428 81.335 62.5647 81.335ZM42.6693 79.6052H61.6995V60.575H42.6693V79.6052Z" fill="#4A00A8"/>
<path fill-rule="evenodd" clip-rule="evenodd" d="M66.8895 59.7103H87.6496V80.4703H66.8895V59.7103Z" fill="#E4D7FF"/>
<path d="M87.6494 81.335H66.8893C66.4112 81.335 66.0242 80.948 66.0242 80.4703V59.7103C66.0242 59.2327 66.4112 58.8451 66.8893 58.8451H87.6494C88.1275 58.8451 88.5141 59.2327 88.5141 59.7103V80.4703C88.5141 80.948 88.1275 81.335 87.6494 81.335ZM67.754 79.6052H86.7842V60.575H67.754V79.6052Z" fill="#4A00A8"/>
<path fill-rule="evenodd" clip-rule="evenodd" d="M41.8048 77.8751H62.5649V80.4702H41.8048V77.8751Z" fill="#4A00A8"/>
<path d="M62.5647 81.3349H41.8046C41.3265 81.3349 40.9394 80.9479 40.9394 80.4702V77.8752C40.9394 77.3975 41.3265 77.01 41.8046 77.01H62.5647C63.0428 77.01 63.4294 77.3975 63.4294 77.8752V80.4702C63.4294 80.9479 63.0428 81.3349 62.5647 81.3349ZM42.6693 79.605H61.6995V78.7404H42.6693V79.605Z" fill="#4A00A8"/>
<path fill-rule="evenodd" clip-rule="evenodd" d="M66.8895 77.8751H87.6496V80.4702H66.8895V77.8751Z" fill="#4A00A8"/>
<path d="M87.6494 81.3349H66.8893C66.4112 81.3349 66.0242 80.9479 66.0242 80.4702V77.8752C66.0242 77.3975 66.4112 77.01 66.8893 77.01H87.6494C88.1275 77.01 88.5141 77.3975 88.5141 77.8752V80.4702C88.5141 80.9479 88.1275 81.3349 87.6494 81.3349ZM67.754 79.605H86.7842V78.7404H67.754V79.605Z" fill="#4A00A8"/>
<path d="M80.7294 53.655C80.2513 53.655 79.8642 53.2679 79.8642 52.7903V49.3301C79.8642 48.8524 80.2513 48.4654 80.7294 48.4654C81.2075 48.4654 81.5941 48.8524 81.5941 49.3301V52.7903C81.5941 53.2679 81.2075 53.655 80.7294 53.655Z" fill="white"/>
<path d="M82.4592 51.925H78.9995C78.5213 51.925 78.1343 51.538 78.1343 51.0603C78.1343 50.5822 78.5213 50.1952 78.9995 50.1952H82.4592C82.9374 50.1952 83.3244 50.5822 83.3244 51.0603C83.3244 51.538 82.9374 51.925 82.4592 51.925Z" fill="white"/>
<circle cx="52.1846" cy="68.3601" r="4.26529" stroke="white" stroke-width="2"/>
<path d="M56.4499 43.2001C56.4499 45.5557 54.5403 47.4654 52.1846 47.4654C49.829 47.4654 47.9194 45.5557 47.9194 43.2001C47.9194 40.8444 49.829 38.9348 52.1846 38.9348C54.5403 38.9348 56.4499 40.8444 56.4499 43.2001Z" stroke="#CA51DE" stroke-width="2"/>
<path d="M74.4596 65.137L80.7292 71.5832M74.4596 71.5832L80.7292 65.137" stroke="white" stroke-width="2" stroke-linecap="round" stroke-linejoin="round"/>
</g>
<defs>
<linearGradient id="paint0_linear" x1="46.8012" y1="82.6072" x2="46.6038" y2="25.0584" gradientUnits="userSpaceOnUse">
<stop stop-color="#CCCCCC"/>
<stop offset="1" stop-color="#E6E6E6"/>
</linearGradient>
<linearGradient id="paint1_linear" x1="32.3355" y1="32.9833" x2="28.9388" y2="17.4766" gradientUnits="userSpaceOnUse">
<stop stop-color="#197CF1"/>
<stop offset="1" stop-color="#7C00F9"/>
</linearGradient>
<linearGradient id="paint2_linear" x1="38.3144" y1="82.9956" x2="37.4155" y2="20.2748" gradientUnits="userSpaceOnUse">
<stop stop-color="#CCCCCC"/>
<stop offset="1" stop-color="#E6E6E6"/>
</linearGradient>
<linearGradient id="paint3_linear" x1="35.6606" y1="83.3327" x2="34.4834" y2="19.9938" gradientUnits="userSpaceOnUse">
<stop stop-color="#CCCCCC"/>
<stop offset="1" stop-color="#F5F2F5"/>
</linearGradient>
<linearGradient id="paint4_linear" x1="46.5539" y1="83.3077" x2="48.1068" y2="24.6294" gradientUnits="userSpaceOnUse">
<stop stop-color="#C82AFF"/>
<stop offset="1" stop-color="#3120FA"/>
</linearGradient>
<clipPath id="clip0">
<rect x="40.9394" y="33.7601" width="47.5751" height="47.5751" fill="white"/>
</clipPath>
</defs>
</svg>
