<svg width="101" height="101" viewBox="0 0 101 101" fill="none" xmlns="http://www.w3.org/2000/svg">
<path d="M13.8085 24.4582C12.2769 24.4582 11.0453 25.6933 11.0453 27.2249V80.4407C11.0453 81.9723 12.2769 83.2074 13.8085 83.2074H49.6553H52.1669H88.0138C89.5453 83.2074 90.7769 81.9723 90.7769 80.4407V27.2249C90.7769 25.6933 89.5453 24.4582 88.0138 24.4582H52.1669H49.6553H13.8085Z" fill="url(#paint0_linear)"/>
<path d="M38.6637 16.8838C38.4499 16.8782 38.1916 16.887 37.8559 16.887H12.504C11.7092 16.887 11.0683 17.5324 11.0683 18.3325V27.1429C11.0672 27.1763 11.0585 27.2074 11.0585 27.241V80.5252C11.0585 82.0587 12.295 83.2952 13.8285 83.2952H88.2C89.7335 83.2952 90.9667 82.0587 90.9667 80.5252V27.241C90.9667 25.7075 89.7335 24.471 88.2 24.471H43.7916C43.7652 24.4358 43.7476 24.417 43.7197 24.3795C42.695 22.9989 41.1474 19.277 40.1386 17.9303C39.5313 17.046 39.3051 16.9006 38.6637 16.8838L38.6637 16.8838Z" fill="url(#paint1_linear)"/>
<path d="M15.7979 19.8757H36.0863C36.6634 19.8757 37.128 20.3403 37.128 20.9174V23.2278C37.128 23.8049 36.6634 24.2694 36.0863 24.2694H15.7979C15.2208 24.2694 14.7562 23.8049 14.7562 23.2278V20.9174C14.7562 20.3403 15.2208 19.8757 15.7979 19.8757V19.8757Z" fill="url(#paint2_linear)"/>
<path d="M11.8008 26.9467C10.4708 26.9467 9.31084 28.0799 9.40128 29.4776L12.5514 78.1573C12.6418 79.5551 13.6208 80.6882 14.9508 80.6882H46.0793H55.1985H86.3269C87.6569 80.6882 88.636 79.5551 88.7264 78.1573L91.8765 29.4776C91.9669 28.0799 90.807 26.9467 89.477 26.9467H55.1985H46.0793H11.8008Z" fill="url(#paint3_linear)"/>
<path opacity="0.3" fill-rule="evenodd" clip-rule="evenodd" d="M14.7067 30.7094C12.6783 30.7094 11.0453 32.3044 11.0453 34.2858L13.5659 74.9231V76.1517C13.5659 77.1585 14.3957 77.9689 15.4264 77.9689H85.7486C86.7793 77.9689 87.6093 77.1585 87.6093 76.1517L90.1297 34.2858C90.1297 32.3044 88.4967 30.7094 86.4682 30.7094H14.7067H14.7067Z" fill="black"/>
<path d="M10.8494 30.5726C9.48575 30.5726 8.31949 31.7014 8.38918 33.0968L10.7786 80.9424C10.8483 82.3378 11.8752 83.4666 13.2389 83.4666H45.8546H55.2046L88.6193 83.3668C89.983 83.3626 91.0248 82.2386 91.0795 80.8425L92.9525 33.0968C93.0073 31.7007 91.8559 30.5726 90.4923 30.5726H55.3459H45.9958L10.8494 30.5726Z" fill="url(#paint4_linear)"/>
<g clip-path="url(#clip0)">
<path d="M83.0799 68.9305H30.6918C29.2248 68.9305 28.0348 70.1198 28.0348 71.5874V75.3249C28.0348 76.7925 29.2248 77.9818 30.6918 77.9818H83.0799C84.5475 77.9818 85.7375 76.7925 85.7375 75.3249V71.5874C85.7368 70.1198 84.5469 68.9305 83.0799 68.9305V68.9305Z" fill="#C20A00"/>
<path d="M83.0792 79.1128H30.6923C28.6025 79.1128 26.9037 77.4134 26.9037 75.3242V71.5874C26.9037 69.4983 28.6025 67.7988 30.6923 67.7988H83.0798C85.169 67.7988 86.8684 69.4983 86.8684 71.5874V75.3242C86.8684 77.4134 85.169 79.1128 83.0792 79.1128ZM30.6923 70.0615C29.8514 70.0615 29.1664 70.7471 29.1664 71.5874V75.3242C29.1664 76.1652 29.8514 76.8508 30.6923 76.8508H83.0798C83.9208 76.8508 84.6057 76.1652 84.6057 75.3242V71.5874C84.6057 70.7471 83.9208 70.0615 83.0798 70.0615H30.6923Z" fill="#C20A00"/>
<path d="M83.0799 65.5362H30.6918C29.2248 65.5362 28.0348 66.7261 28.0348 68.1931V71.9305C28.0348 73.3982 29.2248 74.5875 30.6918 74.5875H83.0799C84.5475 74.5875 85.7375 73.3982 85.7375 71.9305V68.1931C85.7368 66.7261 84.5469 65.5362 83.0799 65.5362V65.5362Z" fill="#EEA71E"/>
<path d="M83.0792 75.7192H30.6923C28.6025 75.7192 26.9037 74.0198 26.9037 71.93V68.1932C26.9037 66.1041 28.6025 64.4046 30.6923 64.4046H83.0798C85.169 64.4046 86.8684 66.1041 86.8684 68.1939V71.9307C86.8684 74.0198 85.169 75.7192 83.0792 75.7192ZM30.6923 66.6673C29.8514 66.6673 29.1664 67.3529 29.1664 68.1939V71.9307C29.1664 72.7716 29.8514 73.4566 30.6923 73.4566H83.0798C83.9208 73.4566 84.6057 72.7716 84.6057 71.9307V68.1939C84.6057 67.3529 83.9208 66.6673 83.0798 66.6673H30.6923Z" fill="#C20A00"/>
<path d="M78.5536 56.485H26.1661C24.6985 56.485 23.5092 57.6743 23.5092 59.1419V62.8793C23.5092 64.347 24.6985 65.5363 26.1661 65.5363H78.5543C80.0213 65.5363 81.2112 64.347 81.2112 62.8793V59.1419C81.2112 57.6743 80.0213 56.485 78.5536 56.485Z" fill="#FFDB94"/>
<path d="M78.5542 66.6672H26.1667C24.0776 66.6672 22.3781 64.9684 22.3781 62.8786V59.1419C22.3781 57.0527 24.0776 55.3533 26.1667 55.3533H78.5542C80.644 55.3533 82.3434 57.0527 82.3434 59.1425V62.8793C82.3428 64.9684 80.6433 66.6672 78.5542 66.6672ZM26.1667 57.616C25.3257 57.616 24.6408 58.3015 24.6408 59.1425V62.8793C24.6408 63.7196 25.3257 64.4052 26.1667 64.4052H78.5542C79.3952 64.4052 80.0801 63.7196 80.0801 62.8793V59.1425C80.0801 58.3015 79.3952 57.616 78.5542 57.616H26.1667Z" fill="#C20A00"/>
<path d="M83.0799 42.9078H30.6918C29.2248 42.9078 28.0348 44.0977 28.0348 45.5653V53.8281C28.0348 55.2957 29.2248 56.485 30.6918 56.485H83.0799C84.5475 56.485 85.7375 55.2957 85.7375 53.8281V45.5653C85.7368 44.0977 84.5469 42.9078 83.0799 42.9078V42.9078Z" fill="#FF8A00"/>
<path d="M83.0792 57.6159H30.6923C28.6025 57.6159 26.9037 55.9171 26.9037 53.8273V45.5652C26.9037 43.4761 28.6025 41.7766 30.6923 41.7766H83.0798C85.169 41.7766 86.8684 43.4761 86.8684 45.5652V53.828C86.8684 55.9171 85.169 57.6159 83.0792 57.6159ZM30.6923 44.0393C29.8514 44.0393 29.1664 44.7242 29.1664 45.5652V53.828C29.1664 54.6683 29.8514 55.3539 30.6923 55.3539H83.0798C83.9208 55.3539 84.6057 54.6683 84.6057 53.828V45.5652C84.6057 44.7242 83.9208 44.0393 83.0798 44.0393H30.6923Z" fill="#C20A00"/>
<path d="M78.5539 37.2507H30.6918C29.2248 37.2507 28.0348 38.4407 28.0348 39.9083V40.2508C28.0348 41.7184 29.2248 42.9077 30.6918 42.9077H78.5546C80.0216 42.9077 81.2115 41.7184 81.2115 40.2508V39.9077C81.2115 38.4407 80.0216 37.2507 78.5539 37.2507V37.2507Z" fill="#D7E9FF"/>
<path d="M78.5538 44.0394H30.6923C28.6025 44.0394 26.9037 42.34 26.9037 40.2508V39.9084C26.9037 37.8192 28.6025 36.1198 30.6923 36.1198H78.5538C80.643 36.1198 82.3424 37.8192 82.3424 39.9084V40.2508C82.3424 42.34 80.643 44.0394 78.5538 44.0394ZM30.6923 38.3824C29.8514 38.3824 29.1664 39.0674 29.1664 39.9084V40.2508C29.1664 41.0918 29.8514 41.7767 30.6923 41.7767H78.5538C79.3948 41.7767 80.0797 41.0918 80.0797 40.2508V39.9084C80.0797 39.0674 79.3948 38.3818 78.5538 38.3818H30.6923V38.3824Z" fill="#C20A00"/>
<path d="M59.7147 56.4851C59.0893 56.4851 58.583 55.9788 58.583 55.3535V44.0395C58.583 43.4141 59.0893 42.9079 59.7147 42.9079C60.3401 42.9079 60.8457 43.4141 60.8457 44.0395V55.3535C60.8457 55.9788 60.3401 56.4851 59.7147 56.4851Z" fill="#C20A00"/>
<path d="M59.7142 62.1421H40.48C39.8546 62.1421 39.3484 61.6358 39.3484 61.0105C39.3484 60.3851 39.8546 59.8794 40.48 59.8794H59.7142C60.3396 59.8794 60.8452 60.3851 60.8452 61.0105C60.8452 61.6358 60.3396 62.1421 59.7142 62.1421Z" fill="#C20A00"/>
<path d="M48.3994 75.7192C47.774 75.7192 47.2684 75.213 47.2684 74.5876V66.6673C47.2684 66.0419 47.774 65.5363 48.3994 65.5363C49.0248 65.5363 49.531 66.0419 49.531 66.6673V74.5876C49.531 75.213 49.0248 75.7192 48.3994 75.7192Z" fill="#C20A00"/>
<path d="M54.058 75.7193C53.4326 75.7193 52.9263 75.2131 52.9263 74.5877V65.5364C52.9263 64.911 53.4326 64.4048 54.058 64.4048C54.6834 64.4048 55.189 64.911 55.189 65.5364V74.5877C55.189 75.2131 54.6834 75.7193 54.058 75.7193Z" fill="#C20A00"/>
<path d="M46.1372 42.9079C45.5118 42.9079 45.0062 42.4023 45.0062 41.7769V37.2509C45.0062 36.6255 45.5118 36.1199 46.1372 36.1199C46.7626 36.1199 47.2689 36.6255 47.2689 37.2509V41.7769C47.2689 42.4023 46.7626 42.9079 46.1372 42.9079Z" fill="#C20A00"/>
<path d="M47.269 53.0907L42.1772 49.6964L37.0861 53.0907V42.9078H47.269V53.0907Z" fill="#D7E9FF"/>
<path d="M47.2689 54.2222C47.0488 54.2222 46.8299 54.1575 46.6409 54.0319L42.1771 51.0564L37.7139 54.0319C37.3669 54.263 36.9189 54.285 36.5525 54.0882C36.1841 53.8914 35.9549 53.5081 35.9549 53.0906V42.9076C35.9549 42.2823 36.4606 41.7766 37.0859 41.7766H47.2689C47.8943 41.7766 48.3999 42.2823 48.3999 42.9076V53.0906C48.3999 53.5081 48.1707 53.8914 47.8023 54.0882C47.6353 54.1776 47.4521 54.2222 47.2689 54.2222ZM42.1771 48.5646C42.3959 48.5646 42.6147 48.6281 42.8051 48.7549L46.1372 50.9768V44.0393H38.2176V50.9768L41.5498 48.7549C41.7401 48.6281 41.9589 48.5646 42.1771 48.5646Z" fill="#C20A00"/>
<path d="M71.028 76.8503C70.4026 76.8503 69.8964 76.3446 69.8964 75.7193V71.1933C69.8964 70.5679 70.4026 70.0616 71.028 70.0616C71.6534 70.0616 72.1597 70.5679 72.1597 71.1933V75.7193C72.1597 76.3446 71.6534 76.8503 71.028 76.8503Z" fill="white"/>
<path d="M73.2912 74.5875H68.7658C68.1405 74.5875 67.6342 74.0813 67.6342 73.4559C67.6342 72.8305 68.1405 72.3249 68.7658 72.3249H73.2912C73.9165 72.3249 74.4228 72.8305 74.4228 73.4559C74.4228 74.0813 73.9165 74.5875 73.2912 74.5875Z" fill="white"/>
<path d="M82.3422 47.4338H74.4226C73.7972 47.4338 73.2909 46.9275 73.2909 46.3021C73.2909 45.6767 73.7972 45.1711 74.4226 45.1711H82.3422C82.9676 45.1711 83.4738 45.6767 83.4738 46.3021C83.4738 46.9275 82.9676 47.4338 82.3422 47.4338Z" fill="white"/>
</g>
<defs>
<linearGradient id="paint0_linear" x1="46.2141" y1="82.6072" x2="46.0167" y2="25.0584" gradientUnits="userSpaceOnUse">
<stop stop-color="#CCCCCC"/>
<stop offset="1" stop-color="#E6E6E6"/>
</linearGradient>
<linearGradient id="paint1_linear" x1="90.9667" y1="29.82" x2="28.3517" y2="17.4766" gradientUnits="userSpaceOnUse">
<stop stop-color="#FF3429"/>
<stop offset="1" stop-color="#FBA721"/>
</linearGradient>
<linearGradient id="paint2_linear" x1="37.7272" y1="82.9956" x2="36.8283" y2="20.2748" gradientUnits="userSpaceOnUse">
<stop stop-color="#CCCCCC"/>
<stop offset="1" stop-color="#E6E6E6"/>
</linearGradient>
<linearGradient id="paint3_linear" x1="35.0735" y1="83.3327" x2="33.8962" y2="19.9938" gradientUnits="userSpaceOnUse">
<stop stop-color="#CCCCCC"/>
<stop offset="1" stop-color="#F5F2F5"/>
</linearGradient>
<linearGradient id="paint4_linear" x1="45.9667" y1="83.3077" x2="47.5197" y2="24.6294" gradientUnits="userSpaceOnUse">
<stop stop-color="#FF2A2A"/>
<stop offset="1" stop-color="#FABD20"/>
</linearGradient>
<clipPath id="clip0">
<rect x="22.3781" y="25.3266" width="64.4907" height="64.4907" fill="white"/>
</clipPath>
</defs>
</svg>
