<svg width="101" height="101" viewBox="0 0 101 101" fill="none" xmlns="http://www.w3.org/2000/svg">
<path d="M92.4575 15.1705H8.71726C6.52844 15.1705 4.75404 16.9449 4.75404 19.1337V82.0406C4.75404 84.2294 6.52844 86.0038 8.71726 86.0038H92.4575C94.6463 86.0038 96.4207 84.2294 96.4207 82.0406V19.1337C96.4207 16.9449 94.6463 15.1705 92.4575 15.1705Z" fill="url(#paint0_linear)"/>
<path opacity="0.3" d="M4.75404 74.3421V82.2677C4.75404 83.7225 6.13147 86.0041 8.71722 86.0041H92.4575C94.7148 86.0041 96.4207 84.3048 96.4207 81.936V74.3421C96.4207 78.4039 94.6532 81.6745 92.4575 81.6745H8.71722C6.5216 81.6745 4.75404 78.4039 4.75404 74.3421V74.3421Z" fill="black"/>
<path opacity="0.3" d="M8.71722 15.1704C6.44791 15.1704 4.75404 16.82 4.75404 19.4294V22.1748C4.75404 19.3907 6.5216 17.1489 8.71722 17.1489H92.4575C94.6532 17.1489 96.4207 19.3907 96.4207 22.1748V19.2662C96.4207 16.4821 94.6532 15.1704 92.4575 15.1704H8.71722Z" fill="white"/>
<g clip-path="url(#clip0)">
<path d="M78.4755 71.5259H22.6991C21.6351 71.5259 20.7725 70.6632 20.7725 69.5986V66.5562H80.4022V69.5986C80.4022 70.6632 79.5395 71.5259 78.4755 71.5259Z" fill="#820039"/>
<path d="M78.4757 72.5193H22.6988C21.0888 72.5193 19.7786 71.2091 19.7786 69.5992V66.5562C19.7786 66.0069 20.2233 65.5627 20.7727 65.5627H80.4024C80.9517 65.5627 81.3965 66.0069 81.3965 66.5562V69.5992C81.3965 71.2091 80.0862 72.5193 78.4757 72.5193V72.5193ZM21.7661 67.5502V69.5992C21.7661 70.1133 22.1847 70.5318 22.6988 70.5318H78.4757C78.9904 70.5318 79.4089 70.1133 79.4089 69.5992V67.5502H21.7661Z" fill="#820039"/>
<path d="M80.4024 65.5626H20.7727C20.2233 65.5626 19.7786 65.1179 19.7786 64.5685V32.7659C19.7786 32.2165 20.2233 31.7724 20.7727 31.7724H80.4024C80.9517 31.7724 81.3965 32.2165 81.3965 32.7659V64.5685C81.3965 65.1179 80.9517 65.5626 80.4024 65.5626ZM21.7661 63.5751H79.4089V33.7599H21.7661V63.5751Z" fill="#820039"/>
<path d="M78.4755 27.7967H22.6991C21.6351 27.7967 20.7725 28.6594 20.7725 29.724V32.7658H80.4022V29.724C80.4022 28.6594 79.5395 27.7967 78.4755 27.7967V27.7967Z" fill="#C5246A"/>
<path d="M80.4024 33.7599H20.7727C20.2233 33.7599 19.7786 33.3152 19.7786 32.7659V29.7235C19.7786 28.113 21.0888 26.8027 22.6988 26.8027H78.4757C80.0862 26.8027 81.3965 28.113 81.3965 29.7235V32.7659C81.3965 33.3152 80.9517 33.7599 80.4024 33.7599V33.7599ZM21.7661 31.7724H79.4089V29.7235C79.4089 29.2088 78.9904 28.7908 78.4757 28.7908H22.6988C22.1847 28.7908 21.7661 29.2088 21.7661 29.7235V31.7724Z" fill="#820039"/>
<path d="M78.4755 69.5377H22.6991C21.6351 69.5377 20.7725 68.675 20.7725 67.611V64.5686H80.4022V67.611C80.4022 68.675 79.5395 69.5377 78.4755 69.5377Z" fill="#C5246A"/>
<path d="M78.4757 70.5317H22.6988C21.0888 70.5317 19.7786 69.2215 19.7786 67.6116V64.5686C19.7786 64.0193 20.2233 63.5751 20.7727 63.5751H80.4024C80.9517 63.5751 81.3965 64.0193 81.3965 64.5686V67.6116C81.3965 69.2215 80.0862 70.5317 78.4757 70.5317V70.5317ZM21.7661 65.5627V67.6116C21.7661 68.1257 22.1847 68.5442 22.6988 68.5442H78.4757C78.9904 68.5442 79.4089 68.1257 79.4089 67.6116V65.5627H21.7661Z" fill="#820039"/>
<path d="M43.6301 69.5378H57.5439V73.5134H43.6301V69.5378Z" fill="#C5246A"/>
<path d="M57.5441 74.5074H43.6303C43.081 74.5074 42.6363 74.0627 42.6363 73.5134V69.5378C42.6363 68.9884 43.081 68.5443 43.6303 68.5443H57.5441C58.0935 68.5443 58.5376 68.9884 58.5376 69.5378V73.5134C58.5376 74.0627 58.0935 74.5074 57.5441 74.5074V74.5074ZM44.6244 72.5193H56.5501V70.5318H44.6244V72.5193Z" fill="#820039"/>
<path d="M62.5131 74.5074H38.6611C38.1117 74.5074 37.667 74.0627 37.667 73.5134C37.667 72.964 38.1117 72.5193 38.6611 72.5193H62.5131C63.0624 72.5193 63.5071 72.964 63.5071 73.5134C63.5071 74.0627 63.0624 74.5074 62.5131 74.5074Z" fill="#820039"/>
<path d="M23.7544 39.7236C23.5002 39.7236 23.2454 39.6263 23.0515 39.4324C22.6631 39.044 22.6631 38.4151 23.0515 38.0267L26.0331 35.0451C26.4209 34.6572 27.0504 34.6572 27.4383 35.0451C27.8261 35.4335 27.8261 36.0624 27.4383 36.4508L24.4567 39.4324C24.2628 39.6263 24.008 39.7236 23.7544 39.7236Z" fill="white"/>
<path d="M24.2502 43.201C23.996 43.201 23.7418 43.1038 23.5479 42.9099C23.1595 42.522 23.1595 41.8931 23.5479 41.5047L30.0075 35.0445C30.3959 34.6567 31.0248 34.6567 31.4127 35.0445C31.8011 35.4329 31.8011 36.0619 31.4127 36.4503L24.9531 42.9099C24.7591 43.1038 24.5044 43.201 24.2502 43.201Z" fill="white"/>
<path d="M70.4634 71.5258C69.914 71.5258 69.4693 71.0811 69.4693 70.5317V66.5561C69.4693 66.0068 69.914 65.5626 70.4634 65.5626C71.0127 65.5626 71.4574 66.0068 71.4574 66.5561V70.5317C71.4574 71.0811 71.0127 71.5258 70.4634 71.5258Z" fill="white"/>
<path d="M72.4517 69.5376H68.4767C67.9273 69.5376 67.4826 69.0935 67.4826 68.5441C67.4826 67.9948 67.9273 67.5501 68.4767 67.5501H72.4517C73.0011 67.5501 73.4458 67.9948 73.4458 68.5441C73.4458 69.0935 73.0011 69.5376 72.4517 69.5376Z" fill="white"/>
<rect x="51.3905" y="35.9455" width="25.7412" height="11.5887" rx="1" fill="#FFBECB"/>
<rect x="51.3905" y="49.8007" width="25.7412" height="11.5887" rx="1" fill="#FFBECB"/>
<rect x="34.5796" y="49.8008" width="14.4185" height="11.5887" rx="1" fill="#FFBECB"/>
</g>
<defs>
<linearGradient id="paint0_linear" x1="7.09193" y1="85.7532" x2="91.9399" y2="16.852" gradientUnits="userSpaceOnUse">
<stop stop-color="#FF6363"/>
<stop offset="1" stop-color="#B3003C" stop-opacity="0.996078"/>
</linearGradient>
<clipPath id="clip0">
<rect x="19.7785" y="19.7783" width="61.6178" height="61.6178" fill="white"/>
</clipPath>
</defs>
</svg>
