<svg width="100" height="100" viewBox="0 0 100 100" fill="none" xmlns="http://www.w3.org/2000/svg">
<path d="M13.6335 24.2837C12.102 24.2837 10.8704 25.5189 10.8704 27.0504V80.2663C10.8704 81.7978 12.102 83.033 13.6335 83.033H49.4804H51.992H87.8388C89.3704 83.033 90.602 81.7978 90.602 80.2663V27.0504C90.602 25.5189 89.3704 24.2837 87.8388 24.2837H51.992H49.4804H13.6335Z" fill="url(#paint0_linear)"/>
<path d="M38.4888 16.7093C38.275 16.7037 38.0167 16.7126 37.681 16.7126H12.3291C11.5343 16.7126 10.8934 17.358 10.8934 18.1581V26.9685C10.8922 27.0018 10.8836 27.033 10.8836 27.0666V80.3507C10.8836 81.8843 12.1201 83.1207 13.6536 83.1207H88.025C89.5586 83.1207 90.7918 81.8843 90.7918 80.3507V27.0666C90.7918 25.5331 89.5586 24.2966 88.025 24.2966H43.6167C43.5903 24.2614 43.5727 24.2425 43.5447 24.205C42.52 22.8245 40.9725 19.1025 39.9637 17.7559C39.3564 16.8716 39.1302 16.7262 38.4888 16.7093L38.4888 16.7093Z" fill="url(#paint1_linear)"/>
<path d="M15.623 19.7013H35.9114C36.4885 19.7013 36.953 20.1658 36.953 20.7429V23.0533C36.953 23.6304 36.4885 24.095 35.9114 24.095H15.623C15.0459 24.095 14.5813 23.6304 14.5813 23.0533V20.7429C14.5813 20.1658 15.0459 19.7013 15.623 19.7013V19.7013Z" fill="url(#paint2_linear)"/>
<path d="M11.6258 26.7723C10.2958 26.7723 9.13589 27.9054 9.22633 29.3032L12.3764 77.9829C12.4669 79.3807 13.4459 80.5138 14.7759 80.5138H45.9043H55.0235H86.152C87.482 80.5138 88.461 79.3807 88.5515 77.9829L91.7015 29.3032C91.7919 27.9054 90.632 26.7723 89.3021 26.7723H55.0235H45.9043H11.6258Z" fill="url(#paint3_linear)"/>
<path opacity="0.3" fill-rule="evenodd" clip-rule="evenodd" d="M14.5318 30.535C12.5033 30.535 10.8704 32.13 10.8704 34.1113L13.391 74.7486V75.9773C13.391 76.9841 14.2207 77.7945 15.2515 77.7945H85.5737C86.6044 77.7945 87.4344 76.9841 87.4344 75.9773L89.9547 34.1113C89.9547 32.13 88.3218 30.535 86.2933 30.535H14.5318H14.5318Z" fill="black"/>
<path d="M10.6744 30.3982C9.31078 30.3982 8.14452 31.527 8.21421 32.9224L10.6037 80.768C10.6734 82.1634 11.7002 83.2922 13.0639 83.2922H45.6796H55.0296L88.4443 83.1923C89.808 83.1882 90.8498 82.0642 90.9046 80.6681L92.7775 32.9224C92.8323 31.5263 91.681 30.3982 90.3173 30.3982H55.1709H45.8209L10.6744 30.3982Z" fill="url(#paint4_linear)"/>
<g clip-path="url(#clip0)">
<path d="M46.3073 34.1596H57.8734V80.4239H46.3073V34.1596Z" fill="white" fill-opacity="0.5"/>
<path d="M57.8733 81.2497H46.3071C45.8509 81.2497 45.4813 80.88 45.4813 80.4238V34.1595C45.4813 33.7034 45.8509 33.3332 46.3071 33.3332H57.8733C58.3295 33.3332 58.6996 33.7034 58.6996 34.1595V80.4238C58.6996 80.88 58.3295 81.2497 57.8733 81.2497ZM47.1334 79.5975H57.047V34.9854H47.1334V79.5975Z" fill="#820039"/>
<path d="M54.5682 69.684H49.6116C49.1555 69.684 48.7853 69.3138 48.7853 68.8576C48.7853 68.4015 49.1555 68.0313 49.6116 68.0313H54.5682C55.0248 68.0313 55.3945 68.4015 55.3945 68.8576C55.3945 69.3138 55.0248 69.684 54.5682 69.684Z" fill="#820039"/>
<path d="M54.5682 72.9883H49.6116C49.1555 72.9883 48.7853 72.6186 48.7853 72.1624C48.7853 71.7058 49.1555 71.3361 49.6116 71.3361H54.5682C55.0248 71.3361 55.3945 71.7058 55.3945 72.1624C55.3945 72.6186 55.0248 72.9883 54.5682 72.9883Z" fill="#820039"/>
<path d="M54.5682 76.2932H49.6116C49.1555 76.2932 48.7853 75.923 48.7853 75.4668C48.7853 75.0107 49.1555 74.6405 49.6116 74.6405H54.5682C55.0248 74.6405 55.3945 75.0107 55.3945 75.4668C55.3945 75.923 55.0248 76.2932 54.5682 76.2932Z" fill="#820039"/>
<path d="M54.5678 42.4211C54.5678 43.7901 53.4583 44.8996 52.0898 44.8996C50.7208 44.8996 49.6113 43.7901 49.6113 42.4211C49.6113 41.052 50.7208 39.9426 52.0898 39.9426C53.4583 39.9426 54.5678 41.052 54.5678 42.4211Z" fill="white"/>
<path d="M77.7 42.4211C77.7 43.7901 76.5905 44.8996 75.2219 44.8996C73.8529 44.8996 72.7434 43.7901 72.7434 42.4211C72.7434 41.052 73.8529 39.9426 75.2219 39.9426C76.5905 39.9426 77.7 41.052 77.7 42.4211Z" fill="white"/>
<path d="M52.0901 45.7252C50.2678 45.7252 48.7853 44.2427 48.7853 42.4209C48.7853 40.599 50.2678 39.116 52.0901 39.116C53.912 39.116 55.3945 40.599 55.3945 42.4209C55.3945 44.2427 53.912 45.7252 52.0901 45.7252ZM52.0901 40.7687C51.1787 40.7687 50.4375 41.5094 50.4375 42.4209C50.4375 43.3323 51.1787 44.073 52.0901 44.073C53.0011 44.073 53.7423 43.3323 53.7423 42.4209C53.7423 41.5094 53.0011 40.7687 52.0901 40.7687Z" fill="#820039"/>
<path d="M57.8724 34.1596H69.4386V80.4239H57.8724V34.1596Z" fill="#FF3C90"/>
<path d="M69.4389 81.2497H57.8727C57.4166 81.2497 57.0464 80.88 57.0464 80.4238V34.1595C57.0464 33.7034 57.4166 33.3332 57.8727 33.3332H69.4389C69.8951 33.3332 70.2648 33.7034 70.2648 34.1595V80.4238C70.2648 80.88 69.8951 81.2497 69.4389 81.2497ZM58.6991 79.5975H68.6126V34.9854H58.6991V79.5975Z" fill="#820039"/>
<path d="M66.1351 69.6839H61.1781C60.7219 69.6839 60.3522 69.3138 60.3522 68.8576C60.3522 68.4014 60.7219 68.0313 61.1781 68.0313H66.1351C66.5913 68.0313 66.9614 68.4014 66.9614 68.8576C66.9614 69.3138 66.5913 69.6839 66.1351 69.6839Z" fill="#820039"/>
<path d="M66.1351 72.9883H61.1781C60.7219 72.9883 60.3522 72.6186 60.3522 72.1624C60.3522 71.7058 60.7219 71.3361 61.1781 71.3361H66.1351C66.5913 71.3361 66.9614 71.7058 66.9614 72.1624C66.9614 72.6186 66.5913 72.9883 66.1351 72.9883Z" fill="#820039"/>
<path d="M66.1343 76.2932H61.1773C60.7211 76.2932 60.3514 75.923 60.3514 75.4668C60.3514 75.0107 60.7211 74.6405 61.1773 74.6405H66.1343C66.5905 74.6405 66.9606 75.0107 66.9606 75.4668C66.9606 75.923 66.5905 76.2932 66.1343 76.2932Z" fill="#820039"/>
<path d="M66.1345 42.4211C66.1345 43.7901 65.025 44.8996 63.656 44.8996C62.2874 44.8996 61.1775 43.7901 61.1775 42.4211C61.1775 41.052 62.2874 39.9426 63.656 39.9426C65.025 39.9426 66.1345 41.052 66.1345 42.4211Z" fill="white"/>
<path d="M63.6558 45.7252C61.8339 45.7252 60.3514 44.2427 60.3514 42.4209C60.3514 40.599 61.8339 39.116 63.6558 39.116C65.4782 39.116 66.9606 40.599 66.9606 42.4209C66.9606 44.2427 65.4782 45.7252 63.6558 45.7252ZM63.6558 40.7687C62.7449 40.7687 62.0036 41.5094 62.0036 42.4209C62.0036 43.3323 62.7449 44.073 63.6558 44.073C64.5672 44.073 65.3084 43.3323 65.3084 42.4209C65.3084 41.5094 64.5672 40.7687 63.6558 40.7687Z" fill="#820039"/>
<path d="M69.4396 34.1596H81.0058V80.4239H69.4396V34.1596Z" fill="white" fill-opacity="0.5"/>
<path d="M81.0051 81.2497H69.4389C68.9827 81.2497 68.6126 80.88 68.6126 80.4238V34.1595C68.6126 33.7034 68.9827 33.3332 69.4389 33.3332H81.0051C81.4613 33.3332 81.8309 33.7034 81.8309 34.1595V80.4238C81.8309 80.88 81.4613 81.2497 81.0051 81.2497ZM70.2647 79.5975H80.1788V34.9854H70.2647V79.5975Z" fill="#820039"/>
<path d="M86.7886 80.4239H81.0057V34.1596L86.7886 36.6381V80.4239Z" fill="#E980AD"/>
<path d="M86.7879 81.2497H81.005C80.5484 81.2497 80.1787 80.88 80.1787 80.4238V34.1595C80.1787 33.8816 80.3182 33.6225 80.5503 33.4693C80.7824 33.3162 81.0759 33.2906 81.3303 33.4003L87.1131 35.8784C87.4171 36.0084 87.6142 36.3076 87.6142 36.638V80.4238C87.6142 80.88 87.2441 81.2497 86.7879 81.2497V81.2497ZM81.8309 79.5975H85.9616V37.1826L81.8309 35.4122V79.5975Z" fill="#820039"/>
<path d="M77.7005 69.684H72.7435C72.2873 69.684 71.9176 69.3138 71.9176 68.8576C71.9176 68.4015 72.2873 68.0313 72.7435 68.0313H77.7005C78.1566 68.0313 78.5268 68.4015 78.5268 68.8576C78.5268 69.3138 78.1566 69.684 77.7005 69.684Z" fill="#820039"/>
<path d="M77.7005 72.9883H72.7435C72.2873 72.9883 71.9176 72.6186 71.9176 72.1624C71.9176 71.7058 72.2873 71.3361 72.7435 71.3361H77.7005C78.1566 71.3361 78.5268 71.7058 78.5268 72.1624C78.5268 72.6186 78.1566 72.9883 77.7005 72.9883Z" fill="#820039"/>
<path d="M77.7005 76.2932H72.7435C72.2873 76.2932 71.9176 75.923 71.9176 75.4668C71.9176 75.0107 72.2873 74.6405 72.7435 74.6405H77.7005C78.1566 74.6405 78.5268 75.0107 78.5268 75.4668C78.5268 75.923 78.1566 76.2932 77.7005 76.2932Z" fill="#820039"/>
<path d="M77.7006 42.4211C77.7006 43.7901 76.5911 44.8996 75.2221 44.8996C73.8536 44.8996 72.7436 43.7901 72.7436 42.4211C72.7436 41.052 73.8536 39.9426 75.2221 39.9426C76.5911 39.9426 77.7006 41.052 77.7006 42.4211Z" fill="#FF0000" fill-opacity="0.1"/>
<path d="M75.222 45.7252C73.4001 45.7252 71.9176 44.2427 71.9176 42.4209C71.9176 40.599 73.4001 39.116 75.222 39.116C77.0443 39.116 78.5268 40.599 78.5268 42.4209C78.5268 44.2427 77.0443 45.7252 75.222 45.7252V45.7252ZM75.222 40.7687C74.311 40.7687 73.5698 41.5094 73.5698 42.4209C73.5698 43.3323 74.311 44.073 75.222 44.073C76.1334 44.073 76.8741 43.3323 76.8741 42.4209C76.8741 41.5094 76.1334 40.7687 75.222 40.7687V40.7687Z" fill="#820039"/>
<path d="M86.7888 81.2496H40.5245C40.0683 81.2496 39.6982 80.88 39.6982 80.4238C39.6982 79.9676 40.0683 79.5975 40.5245 79.5975H86.7888C87.2449 79.5975 87.6151 79.9676 87.6151 80.4238C87.6151 80.88 87.2449 81.2496 86.7888 81.2496Z" fill="#820039"/>
<path d="M65.3088 62.2484C64.8526 62.2484 64.4825 61.8783 64.4825 61.4221V58.1177C64.4825 57.6615 64.8526 57.2914 65.3088 57.2914C65.765 57.2914 66.1347 57.6615 66.1347 58.1177V61.4221C66.1347 61.8783 65.765 62.2484 65.3088 62.2484Z" fill="white"/>
<path d="M66.9612 60.5963H63.6563C63.2001 60.5963 62.8305 60.2262 62.8305 59.77C62.8305 59.3138 63.2001 58.9437 63.6563 58.9437H66.9612C67.4173 58.9437 67.7875 59.3138 67.7875 59.77C67.7875 60.2262 67.4173 60.5963 66.9612 60.5963Z" fill="white"/>
</g>
<defs>
<linearGradient id="paint0_linear" x1="46.0391" y1="82.4328" x2="45.8418" y2="24.8839" gradientUnits="userSpaceOnUse">
<stop stop-color="#CCCCCC"/>
<stop offset="1" stop-color="#E6E6E6"/>
</linearGradient>
<linearGradient id="paint1_linear" x1="90.7918" y1="27.8687" x2="28.1767" y2="17.3022" gradientUnits="userSpaceOnUse">
<stop stop-color="#FF5F64"/>
<stop offset="1" stop-color="#FF026F"/>
</linearGradient>
<linearGradient id="paint2_linear" x1="37.5523" y1="82.8212" x2="36.6534" y2="20.1004" gradientUnits="userSpaceOnUse">
<stop stop-color="#CCCCCC"/>
<stop offset="1" stop-color="#E6E6E6"/>
</linearGradient>
<linearGradient id="paint3_linear" x1="34.8985" y1="83.1582" x2="33.7212" y2="19.8194" gradientUnits="userSpaceOnUse">
<stop stop-color="#CCCCCC"/>
<stop offset="1" stop-color="#F5F2F5"/>
</linearGradient>
<linearGradient id="paint4_linear" x1="45.7918" y1="83.1332" x2="44.1099" y2="30.3961" gradientUnits="userSpaceOnUse">
<stop stop-color="#FF6464"/>
<stop offset="1" stop-color="#FF006F"/>
</linearGradient>
<clipPath id="clip0">
<rect x="39.5833" y="33.3332" width="47.9167" height="47.9167" fill="white"/>
</clipPath>
</defs>
</svg>
