<svg width="101" height="101" viewBox="0 0 101 101" fill="none" xmlns="http://www.w3.org/2000/svg">
<path d="M14.2209 24.4582C12.6893 24.4582 11.4577 25.6933 11.4577 27.2249V80.4407C11.4577 81.9723 12.6893 83.2074 14.2209 83.2074H50.0677H52.5794H88.4262C89.9578 83.2074 91.1894 81.9723 91.1894 80.4407V27.2249C91.1894 25.6933 89.9578 24.4582 88.4262 24.4582H52.5794H50.0677H14.2209Z" fill="url(#paint0_linear)"/>
<path d="M39.0762 16.8838C38.8624 16.8782 38.6041 16.887 38.2684 16.887H12.9165C12.1217 16.887 11.4808 17.5324 11.4808 18.3325V27.1429C11.4796 27.1763 11.471 27.2074 11.471 27.241V80.5252C11.471 82.0587 12.7075 83.2952 14.241 83.2952H88.6124C90.146 83.2952 91.3792 82.0587 91.3792 80.5252V27.241C91.3792 25.7075 90.146 24.471 88.6124 24.471H44.2041C44.1777 24.4358 44.1601 24.417 44.1321 24.3795C43.1074 22.9989 41.5599 19.277 40.5511 17.9303C39.9438 17.046 39.7176 16.9006 39.0762 16.8838L39.0762 16.8838Z" fill="url(#paint1_linear)"/>
<path d="M16.2104 19.8757H36.4988C37.0759 19.8757 37.5404 20.3403 37.5404 20.9174V23.2278C37.5404 23.8049 37.0759 24.2694 36.4988 24.2694H16.2104C15.6333 24.2694 15.1687 23.8049 15.1687 23.2278V20.9174C15.1687 20.3403 15.6333 19.8757 16.2104 19.8757V19.8757Z" fill="url(#paint2_linear)"/>
<path d="M12.2132 26.9467C10.8832 26.9467 9.7233 28.0799 9.81375 29.4776L12.9638 78.1573C13.0543 79.5551 14.0333 80.6882 15.3633 80.6882H46.4918H55.6109H86.7394C88.0694 80.6882 89.0484 79.5551 89.1389 78.1573L92.2889 29.4776C92.3794 28.0799 91.2195 26.9467 89.8895 26.9467H55.6109H46.4918H12.2132Z" fill="url(#paint3_linear)"/>
<path opacity="0.3" fill-rule="evenodd" clip-rule="evenodd" d="M15.1192 30.7094C13.0907 30.7094 11.4577 32.3044 11.4577 34.2858L13.9784 74.9231V76.1517C13.9784 77.1585 14.8081 77.9689 15.8388 77.9689H86.161C87.1918 77.9689 88.0218 77.1585 88.0218 76.1517L90.5421 34.2858C90.5421 32.3044 88.9091 30.7094 86.8807 30.7094H15.1192H15.1192Z" fill="black"/>
<path d="M11.2618 30.5726C9.89818 30.5726 8.73193 31.7014 8.80162 33.0968L11.1911 80.9424C11.2608 82.3378 12.2876 83.4666 13.6513 83.4666H46.267H55.617L89.0317 83.3668C90.3954 83.3626 91.4372 82.2386 91.492 80.8425L93.3649 33.0968C93.4197 31.7007 92.2683 30.5726 90.9047 30.5726H55.7583H46.4083L11.2618 30.5726Z" fill="url(#paint4_linear)"/>
<g clip-path="url(#clip0)">
<path d="M87.2239 45.2365C87.2239 46.6561 86.0731 47.806 84.654 47.806H57.3216C55.9024 47.806 54.7521 46.6556 54.7521 45.2365V38.1086C54.7521 36.6894 55.9024 35.5391 57.3216 35.5391H84.654C86.0731 35.5391 87.2235 36.6894 87.2235 38.1086V45.2365H87.2239Z" fill="#0E4AE5"/>
<path d="M84.6544 48.5277H57.3224C55.5073 48.5277 54.0307 47.0512 54.0307 45.2361V38.109C54.0307 36.2939 55.5073 34.8173 57.3224 34.8173H84.6544C86.4695 34.8173 87.9456 36.2939 87.9456 38.109V45.2361C87.9456 47.0512 86.4695 48.5277 84.6544 48.5277V48.5277ZM57.3224 36.2604C56.3033 36.2604 55.4738 37.0899 55.4738 38.109V45.2361C55.4738 46.2551 56.3033 47.0846 57.3224 47.0846H84.6544C85.673 47.0846 86.5025 46.2551 86.5025 45.2361V38.109C86.5025 37.0899 85.673 36.2604 84.6544 36.2604H57.3224Z" fill="#0E4AE5"/>
<path d="M75.6784 60.0733C75.6784 60.8702 75.0322 61.5164 74.2348 61.5164H66.2976C65.5003 61.5164 64.8541 60.8702 64.8541 60.0733V59.3515C64.8541 58.5546 65.5003 57.9084 66.2976 57.9084H74.2348C75.0322 57.9084 75.6784 58.5546 75.6784 59.3515V60.0733Z" fill="#0E4AE5"/>
<path d="M74.2349 62.2381H66.2977C65.1036 62.2381 64.1329 61.267 64.1329 60.0733V59.3515C64.1329 58.1578 65.1036 57.1867 66.2977 57.1867H74.2349C75.429 57.1867 76.3998 58.1578 76.3998 59.3515V60.0733C76.3998 61.267 75.429 62.2381 74.2349 62.2381V62.2381ZM66.2977 58.6302C65.8993 58.6302 65.576 58.9535 65.576 59.3515V60.0733C65.576 60.4717 65.8993 60.795 66.2977 60.795H74.2349C74.6334 60.795 74.9567 60.4717 74.9567 60.0733V59.3515C74.9567 58.9535 74.6334 58.6302 74.2349 58.6302H66.2977Z" fill="#0E4AE5"/>
<path d="M75.6784 78.1134C75.6784 78.9103 75.0322 79.5565 74.2348 79.5565H66.2976C65.5003 79.5565 64.8541 78.9103 64.8541 78.1134V77.3916C64.8541 76.5947 65.5003 75.9485 66.2976 75.9485H74.2348C75.0322 75.9485 75.6784 76.5947 75.6784 77.3916V78.1134Z" fill="#0E4AE5"/>
<path d="M74.2349 80.2779H66.2977C65.1036 80.2779 64.1329 79.3071 64.1329 78.1134V77.3917C64.1329 76.198 65.1036 75.2269 66.2977 75.2269H74.2349C75.429 75.2269 76.3998 76.198 76.3998 77.3917V78.1134C76.3998 79.3071 75.429 80.2779 74.2349 80.2779V80.2779ZM66.2977 76.6699C65.8993 76.6699 65.576 76.9932 65.576 77.3917V78.1134C65.576 78.5115 65.8993 78.8348 66.2977 78.8348H74.2349C74.6334 78.8348 74.9567 78.5115 74.9567 78.1134V77.3917C74.9567 76.9932 74.6334 76.6699 74.2349 76.6699H66.2977Z" fill="#0E4AE5"/>
<path d="M66.2983 61.5163H74.2355V75.9484H66.2983V61.5163Z" fill="#0E4AE5"/>
<path d="M74.2352 76.6698H66.298C65.8991 76.6698 65.5762 76.3469 65.5762 75.9485V61.5163C65.5762 61.1179 65.8991 60.795 66.298 60.795H74.2352C74.634 60.795 74.9569 61.1179 74.9569 61.5163V75.9485C74.9569 76.3469 74.634 76.6698 74.2352 76.6698ZM67.0193 75.2267H73.5138V62.2381H67.0193V75.2267Z" fill="#0E4AE5"/>
<path d="M85.7804 45.2365C85.7804 46.6561 84.6301 47.806 83.211 47.806H55.8785C54.4594 47.806 53.3086 46.6556 53.3086 45.2365V38.1086C53.3086 36.6894 54.4594 35.5391 55.8785 35.5391H83.2105C84.6301 35.5391 85.7804 36.6894 85.7804 38.1086V45.2365Z" fill="#FFE26F"/>
<path d="M83.2105 48.5277H55.8785C54.0634 48.5277 52.5873 47.0512 52.5873 45.2361V38.109C52.5873 36.2939 54.0634 34.8173 55.8785 34.8173H83.2105C85.0256 34.8173 86.5022 36.2939 86.5022 38.109V45.2361C86.5022 47.0512 85.0256 48.5277 83.2105 48.5277ZM55.8785 36.2604C54.8599 36.2604 54.0304 37.0899 54.0304 38.109V45.2361C54.0304 46.2551 54.8599 47.0846 55.8785 47.0846H83.2105C84.2296 47.0846 85.0591 46.2551 85.0591 45.2361V38.109C85.0591 37.0899 84.2296 36.2604 83.2105 36.2604H55.8785Z" fill="#0E4AE5"/>
<path d="M69.1839 58.6302C68.785 58.6302 68.4621 58.3073 68.4621 57.9084V53.5787H53.1662C49.9567 53.5787 47.5359 51.2859 47.5359 48.2444V46.6164C47.5359 43.5898 49.903 41.1128 52.8586 40.9902C53.0163 40.9423 53.191 40.9522 53.3545 41.0339L53.4073 41.06C53.7083 41.2078 53.8665 41.5439 53.7905 41.8709C53.7141 42.1971 53.423 42.4283 53.0877 42.4283C50.8226 42.4287 48.979 44.3074 48.979 46.6164V48.2444C48.979 50.4626 50.7796 52.1356 53.1662 52.1356H69.1839C69.5827 52.1356 69.9056 52.4585 69.9056 52.8574V57.9084C69.9056 58.3073 69.5827 58.6302 69.1839 58.6302Z" fill="#0E4AE5"/>
<path d="M74.2353 60.0733C74.2353 60.8702 73.5891 61.5164 72.7922 61.5164H64.8546C64.0577 61.5164 63.4115 60.8702 63.4115 60.0733V59.3515C63.4115 58.5546 64.0577 57.9084 64.8546 57.9084H72.7922C73.5891 57.9084 74.2353 58.5546 74.2353 59.3515V60.0733Z" fill="#00A3FF"/>
<path d="M72.7919 62.2381H64.8543C63.6606 62.2381 62.6894 61.267 62.6894 60.0733V59.3515C62.6894 58.1578 63.6606 57.1867 64.8543 57.1867H72.7919C73.986 57.1867 74.9567 58.1578 74.9567 59.3515V60.0733C74.9567 61.267 73.986 62.2381 72.7919 62.2381ZM64.8543 58.6302C64.4562 58.6302 64.1329 58.9535 64.1329 59.3515V60.0733C64.1329 60.4717 64.4562 60.795 64.8543 60.795H72.7919C73.1903 60.795 73.5136 60.4717 73.5136 60.0733V59.3515C73.5136 58.9535 73.1903 58.6302 72.7919 58.6302H64.8543Z" fill="#0E4AE5"/>
<path d="M74.2353 78.1134C74.2353 78.9103 73.5891 79.5565 72.7922 79.5565H64.8546C64.0577 79.5565 63.4115 78.9103 63.4115 78.1134V77.3916C63.4115 76.5947 64.0577 75.9485 64.8546 75.9485H72.7922C73.5891 75.9485 74.2353 76.5947 74.2353 77.3916V78.1134Z" fill="#00A3FF"/>
<path d="M72.7919 80.2779H64.8543C63.6606 80.2779 62.6894 79.3071 62.6894 78.1134V77.3917C62.6894 76.198 63.6606 75.2269 64.8543 75.2269H72.7919C73.986 75.2269 74.9567 76.198 74.9567 77.3917V78.1134C74.9567 79.3071 73.986 80.2779 72.7919 80.2779V80.2779ZM64.8543 76.6699C64.4562 76.6699 64.1329 76.9932 64.1329 77.3917V78.1134C64.1329 78.5115 64.4562 78.8348 64.8543 78.8348H72.7919C73.1903 78.8348 73.5136 78.5115 73.5136 78.1134V77.3917C73.5136 76.9932 73.1903 76.6699 72.7919 76.6699H64.8543Z" fill="#0E4AE5"/>
<path d="M64.8541 61.5163H72.7917V75.9484H64.8541V61.5163Z" fill="#75CDFF"/>
<path d="M72.7918 76.6698H64.8542C64.4557 76.6698 64.1328 76.3469 64.1328 75.9485V61.5163C64.1328 61.1179 64.4557 60.795 64.8542 60.795H72.7918C73.1907 60.795 73.5135 61.1179 73.5135 61.5163V75.9485C73.5135 76.3469 73.1907 76.6698 72.7918 76.6698ZM65.5759 75.2267H72.0705V62.2381H65.5759V75.2267Z" fill="#0E4AE5"/>
<path d="M75.679 39.8684H56.1958C55.7969 39.8684 55.4741 39.5455 55.4741 39.147C55.4741 38.7482 55.7969 38.4253 56.1958 38.4253H75.679C76.0774 38.4253 76.4003 38.7482 76.4003 39.147C76.4003 39.5455 76.0774 39.8684 75.679 39.8684Z" fill="white"/>
<path d="M81.4516 39.8684H79.2867C78.8879 39.8684 78.565 39.5455 78.565 39.147C78.565 38.7482 78.8879 38.4253 79.2867 38.4253H81.4516C81.85 38.4253 82.1729 38.7482 82.1729 39.147C82.1729 39.5455 81.85 39.8684 81.4516 39.8684V39.8684Z" fill="white"/>
<path d="M83.52 44.6288C83.0242 44.6288 79.7086 41.0299 75.9949 44.0825C75.3264 44.6317 72.2511 45.1127 71.8213 45.1127C70.9047 45.1127 69.9063 46.1235 69.9063 46.9311V47.806H83.0985C83.9953 47.806 85.0598 46.922 85.0598 46.2824V46.0913C85.0598 45.2836 84.4367 44.6288 83.52 44.6288V44.6288Z" fill="#FFEFB1"/>
<path d="M83.0981 48.5277H69.9059C69.5071 48.5277 69.1842 48.2048 69.1842 47.8059V46.9314C69.1842 45.6968 70.5393 44.3912 71.8214 44.3912C72.3689 44.3838 75.1134 43.8706 75.5371 43.525C78.9344 40.7317 82.1204 42.8804 83.3203 43.6901C83.4569 43.7826 83.5684 43.8615 83.6535 43.9106C84.8757 43.9734 85.7807 44.8892 85.7807 46.0907V46.2823C85.7807 47.353 84.3769 48.5277 83.0981 48.5277V48.5277ZM70.6273 47.0846H83.0981C83.6605 47.0846 84.2988 46.4908 84.3385 46.2683L84.3377 46.0907C84.3377 45.6547 84.0016 45.35 83.5193 45.35C83.2009 45.35 82.9561 45.1852 82.513 44.8863C81.2925 44.0622 79.0199 42.5295 76.4529 44.6398C75.5168 45.4086 72.1224 45.8343 71.821 45.8343C71.3057 45.8343 70.6269 46.5243 70.6269 46.9314V47.0846H70.6273ZM83.7129 43.9416H83.72H83.7129Z" fill="#0E4AE5"/>
<path d="M72.0706 70.1757C71.6718 70.1757 71.3489 69.8528 71.3489 69.454V66.5678C71.3489 66.1689 71.6718 65.846 72.0706 65.846C72.4691 65.846 72.792 66.1689 72.792 66.5678V69.454C72.792 69.8528 72.4691 70.1757 72.0706 70.1757Z" fill="white"/>
<path d="M73.5142 68.7321H70.6276C70.2292 68.7321 69.9063 68.4093 69.9063 68.0108C69.9063 67.612 70.2292 67.2891 70.6276 67.2891H73.5142C73.9127 67.2891 74.2355 67.612 74.2355 68.0108C74.2355 68.4093 73.9127 68.7321 73.5142 68.7321Z" fill="white"/>
</g>
<defs>
<linearGradient id="paint0_linear" x1="46.6265" y1="82.6072" x2="46.4292" y2="25.0584" gradientUnits="userSpaceOnUse">
<stop stop-color="#CCCCCC"/>
<stop offset="1" stop-color="#E6E6E6"/>
</linearGradient>
<linearGradient id="paint1_linear" x1="89.5852" y1="26.2416" x2="28.7641" y2="17.4766" gradientUnits="userSpaceOnUse">
<stop stop-color="#F0B819"/>
<stop offset="1" stop-color="#20BCFA"/>
</linearGradient>
<linearGradient id="paint2_linear" x1="38.1397" y1="82.9956" x2="37.2408" y2="20.2748" gradientUnits="userSpaceOnUse">
<stop stop-color="#CCCCCC"/>
<stop offset="1" stop-color="#E6E6E6"/>
</linearGradient>
<linearGradient id="paint3_linear" x1="35.4859" y1="83.3327" x2="34.3087" y2="19.9938" gradientUnits="userSpaceOnUse">
<stop stop-color="#CCCCCC"/>
<stop offset="1" stop-color="#F5F2F5"/>
</linearGradient>
<linearGradient id="paint4_linear" x1="61.9861" y1="25.8187" x2="63.4113" y2="87.4342" gradientUnits="userSpaceOnUse">
<stop stop-color="#20BCFA"/>
<stop offset="0.484375" stop-color="#A6ED98"/>
<stop offset="1" stop-color="#FFCB00"/>
</linearGradient>
<clipPath id="clip0">
<rect x="44.9908" y="34.8173" width="45.4607" height="45.4607" fill="white"/>
</clipPath>
</defs>
</svg>
