<svg width="101" height="100" viewBox="0 0 101 100" fill="none" xmlns="http://www.w3.org/2000/svg">
<path d="M14.2211 24.2837C12.6895 24.2837 11.4579 25.5189 11.4579 27.0504V80.2663C11.4579 81.7978 12.6895 83.033 14.2211 83.033H50.0679H52.5795H88.4264C89.9579 83.033 91.1895 81.7978 91.1895 80.2663V27.0504C91.1895 25.5189 89.9579 24.2837 88.4264 24.2837H52.5795H50.0679H14.2211Z" fill="url(#paint0_linear)"/>
<path d="M39.0763 16.7093C38.8625 16.7037 38.6042 16.7126 38.2685 16.7126H12.9166C12.1218 16.7126 11.4809 17.358 11.4809 18.1581V26.9685C11.4798 27.0018 11.4711 27.033 11.4711 27.0666V80.3507C11.4711 81.8843 12.7076 83.1207 14.2411 83.1207H88.6126C90.1461 83.1207 91.3793 81.8843 91.3793 80.3507V27.0666C91.3793 25.5331 90.1461 24.2966 88.6126 24.2966H44.2042C44.1778 24.2614 44.1602 24.2425 44.1323 24.205C43.1076 22.8245 41.56 19.1025 40.5512 17.7559C39.9439 16.8716 39.7177 16.7262 39.0763 16.7093L39.0763 16.7093Z" fill="url(#paint1_linear)"/>
<path d="M16.2105 19.7013H36.4989C37.076 19.7013 37.5406 20.1658 37.5406 20.7429V23.0533C37.5406 23.6304 37.076 24.095 36.4989 24.095H16.2105C15.6334 24.095 15.1688 23.6304 15.1688 23.0533V20.7429C15.1688 20.1658 15.6334 19.7013 16.2105 19.7013V19.7013Z" fill="url(#paint2_linear)"/>
<path d="M12.2133 26.7723C10.8834 26.7723 9.72343 27.9054 9.81387 29.3032L12.9639 77.9829C13.0544 79.3807 14.0334 80.5138 15.3634 80.5138H46.4919H55.611H86.7395C88.0695 80.5138 89.0485 79.3807 89.139 77.9829L92.2891 29.3032C92.3795 27.9054 91.2196 26.7723 89.8896 26.7723H55.611H46.4919H12.2133Z" fill="url(#paint3_linear)"/>
<path opacity="0.3" fill-rule="evenodd" clip-rule="evenodd" d="M15.1193 30.535C13.0909 30.535 11.4579 32.13 11.4579 34.1113L13.9785 74.7486V75.9773C13.9785 76.9841 14.8082 77.7945 15.839 77.7945H86.1612C87.1919 77.7945 88.0219 76.9841 88.0219 75.9773L90.5423 34.1113C90.5423 32.13 88.9093 30.535 86.8808 30.535H15.1193H15.1193Z" fill="black"/>
<path d="M11.262 30.3982C9.89835 30.3982 8.73209 31.527 8.80178 32.9224L11.1912 80.768C11.2609 82.1634 12.2878 83.2922 13.6515 83.2922H46.2672H55.6172L89.0319 83.1923C90.3956 83.1882 91.4374 82.0642 91.4921 80.6681L93.3651 32.9224C93.4199 31.5263 92.2685 30.3982 90.9049 30.3982H55.7585H46.4084L11.262 30.3982Z" fill="url(#paint4_linear)"/>
<g clip-path="url(#clip0)">
<path d="M76.8651 73.7649H77.3194C83.332 73.7649 88.2062 68.8907 88.2062 62.8776C88.2062 56.8649 83.332 51.9907 77.3194 51.9907C76.8942 51.9907 76.4763 52.0214 76.0636 52.0686C76.2827 51.1694 76.4119 50.2355 76.4119 49.2689C76.4119 42.7553 71.1313 37.4746 64.6177 37.4746C58.6232 37.4746 53.6846 41.9501 52.9334 47.74C51.2364 46.9795 49.3602 46.5471 47.3797 46.5471C39.8636 46.5471 33.771 52.6402 33.771 60.1562C33.771 67.3655 39.3814 73.2499 46.4723 73.7192V73.7649H76.8651Z" fill="#0050C6"/>
<path d="M77.3194 74.6724H46.4723C46.3488 74.6724 46.2309 74.6475 46.1234 74.6023C38.6645 73.9596 32.8636 67.6698 32.8636 60.1563C32.8636 52.1522 39.3757 45.6402 47.3798 45.6402C49.0431 45.6402 50.6716 45.9226 52.2353 46.4822C53.5186 40.7556 58.6513 36.5672 64.6177 36.5672C71.6214 36.5672 77.3194 42.2653 77.3194 49.269C77.3194 49.8649 77.2732 50.4723 77.1819 51.0844C77.2276 51.0839 77.2738 51.0833 77.3194 51.0833C83.8232 51.0833 89.1137 56.3744 89.1137 62.8776C89.1137 69.3814 83.8232 74.6724 77.3194 74.6724V74.6724ZM46.7573 72.8575H77.3194C82.8223 72.8575 87.2993 68.381 87.2993 62.8776C87.2993 57.3748 82.8223 52.8982 77.3194 52.8982C76.9659 52.8982 76.589 52.9216 76.1675 52.9704C75.8768 53.0031 75.5803 52.8915 75.3836 52.6688C75.1873 52.4466 75.1126 52.1419 75.1822 51.8537C75.396 50.9769 75.5045 50.1068 75.5045 49.269C75.5045 43.2657 70.621 38.3821 64.6177 38.3821C59.1704 38.3821 54.534 42.4553 53.8332 47.8569C53.7968 48.1414 53.6271 48.3916 53.3763 48.5318C53.1276 48.672 52.8255 48.6865 52.5628 48.5681C50.9125 47.8294 49.1687 47.4546 47.3798 47.4546C40.3761 47.4546 34.678 53.1521 34.678 60.1563C34.678 66.8142 39.885 72.3742 46.5325 72.8139C46.6104 72.8191 46.6862 72.8342 46.7573 72.8575Z" fill="#0050C6"/>
<path d="M76.8651 71.0431H77.3194C83.332 71.0431 88.2062 66.1689 88.2062 60.1563C88.2062 54.1431 83.332 49.2689 77.3194 49.2689C76.8942 49.2689 76.4763 49.2996 76.0636 49.3468C76.2827 48.4477 76.4119 47.5137 76.4119 46.5471C76.4119 40.0335 71.1313 34.7528 64.6177 34.7528C58.6232 34.7528 53.6846 39.2288 52.9334 45.0182C51.2364 44.2582 49.3602 43.8253 47.3797 43.8253C39.8636 43.8253 33.771 49.9184 33.771 57.4344C33.771 64.6437 39.3814 70.5281 46.4723 70.9974V71.0431H76.8651Z" fill="#D7E9FF"/>
<path d="M77.3194 71.9505H46.4723C46.3488 71.9505 46.2309 71.9256 46.1234 71.8809C38.6645 71.2377 32.8636 64.9479 32.8636 57.4344C32.8636 49.4303 39.3757 42.9183 47.3798 42.9183C49.0431 42.9183 50.6716 43.2007 52.2353 43.7603C53.5186 38.0337 58.6513 33.8453 64.6177 33.8453C71.6214 33.8453 77.3194 39.5434 77.3194 46.547C77.3194 47.143 77.2732 47.7504 77.1819 48.3625C77.2276 48.3619 77.2738 48.3614 77.3194 48.3614C83.8232 48.3614 89.1137 53.6525 89.1137 60.1562C89.1137 66.6594 83.8232 71.9505 77.3194 71.9505V71.9505ZM46.7573 70.1356H77.3194C82.8223 70.1356 87.2993 65.6591 87.2993 60.1562C87.2993 54.6528 82.8223 50.1763 77.3194 50.1763C76.9659 50.1763 76.589 50.1997 76.1675 50.2485C75.8768 50.2848 75.5803 50.1696 75.3836 49.9469C75.1873 49.7247 75.1126 49.4199 75.1822 49.1318C75.396 48.255 75.5045 47.3854 75.5045 46.547C75.5045 40.5443 70.621 35.6602 64.6177 35.6602C59.1704 35.6602 54.534 39.7334 53.8332 45.135C53.7968 45.4195 53.6271 45.6697 53.3763 45.8099C53.1276 45.95 52.8255 45.9646 52.5628 45.8462C50.9125 45.1075 49.1687 44.7327 47.3798 44.7327C40.3761 44.7327 34.678 50.4302 34.678 57.4344C34.678 64.0923 39.885 69.6523 46.5325 70.092C46.6104 70.0972 46.6862 70.1122 46.7573 70.1356Z" fill="#0050C6"/>
<path d="M74.5303 64.5988C74.5303 72.0777 68.4675 78.1404 60.9883 78.1404C53.5098 78.1404 47.447 72.0777 47.447 64.5988C47.447 57.1198 53.5098 51.0571 60.9883 51.0571C68.4675 51.0571 74.5303 57.1198 74.5303 64.5988Z" fill="#C3DCFC"/>
<path d="M60.9883 80.2238C52.3731 80.2238 45.3636 73.2142 45.3636 64.5988C45.3636 55.9827 52.3731 48.9738 60.9883 48.9738C69.6042 48.9738 76.6136 55.9827 76.6136 64.5988C76.6136 73.2142 69.6042 80.2238 60.9883 80.2238ZM60.9883 51.4736C53.7521 51.4736 47.8634 57.3617 47.8634 64.5988C47.8634 71.8358 53.7521 77.7239 60.9883 77.7239C68.2252 77.7239 74.1138 71.8358 74.1138 64.5988C74.1138 57.3617 68.2252 51.4736 60.9883 51.4736V51.4736Z" fill="#0050C6"/>
<path d="M36.4933 58.3414C35.9918 58.3414 35.5858 57.9354 35.5858 57.4344C35.5858 50.9857 40.6329 45.8068 47.0764 45.6438C47.5499 45.608 47.9937 46.0269 48.0062 46.5279C48.0192 47.0288 47.6231 47.4452 47.1226 47.4576C41.6706 47.5957 37.4002 51.9778 37.4002 57.4344C37.4002 57.9354 36.9942 58.3414 36.4933 58.3414Z" fill="white"/>
<path d="M73.0854 77.3336C72.5844 77.3336 72.1785 76.9276 72.1785 76.4266V72.7973C72.1785 72.2964 72.5844 71.8904 73.0854 71.8904C73.5869 71.8904 73.9929 72.2964 73.9929 72.7973V76.4266C73.9929 76.9276 73.5869 77.3336 73.0854 77.3336V77.3336Z" fill="white"/>
<path d="M74.8999 75.5192H71.2706C70.7697 75.5192 70.3637 75.1132 70.3637 74.6117C70.3637 74.1108 70.7697 73.7048 71.2706 73.7048H74.8999C75.4009 73.7048 75.8069 74.1108 75.8069 74.6117C75.8069 75.1132 75.4009 75.5192 74.8999 75.5192Z" fill="white"/>
<path d="M67.3449 71.0431H54.6329C54.2138 71.0431 53.8745 70.7034 53.8745 70.2847V63.4596C53.8745 63.0409 54.2138 62.7016 54.6329 62.7016C55.0521 62.7016 55.3914 63.0409 55.3914 63.4596V69.5262H66.5864V63.4596C66.5864 63.0409 66.9258 62.7016 67.3449 62.7016C67.7641 62.7016 68.103 63.0409 68.103 63.4596V70.2847C68.103 70.7034 67.7641 71.0431 67.3449 71.0431Z" fill="#0050C6"/>
<path d="M60.9885 66.8724C60.7748 66.8724 60.5745 66.7675 60.4525 66.5915L58.1943 63.3322C58.0563 63.133 58.0407 62.8734 58.1529 62.6585C58.2656 62.4437 58.4879 62.309 58.7304 62.309H63.2467C63.4891 62.309 63.7115 62.4437 63.8241 62.6585C63.9364 62.8734 63.9207 63.133 63.7827 63.3322L61.5245 66.5915C61.4022 66.7675 61.2023 66.8724 60.9885 66.8724ZM59.9751 63.613L60.9885 65.076L62.002 63.613H59.9751Z" fill="#0050C6"/>
<rect x="60.1268" y="56.7461" width="1.7209" height="4.12731" rx="0.86045" fill="#4597FF"/>
<rect x="62.6449" y="53.6399" width="1.7209" height="4.12731" rx="0.86045" fill="#4597FF" fill-opacity="0.75"/>
<rect x="65.2267" y="57.7672" width="1.7209" height="4.12731" rx="0.860451" fill="#4597FF"/>
<rect x="57.6097" y="48.303" width="1.7209" height="4.12731" rx="0.86045" fill="#4597FF" fill-opacity="0.75"/>
<rect x="59.267" y="42.0495" width="1.7209" height="4.12731" rx="0.860449" fill="#4597FF" fill-opacity="0.5"/>
<rect x="64.366" y="48.9934" width="1.7209" height="4.12731" rx="0.860449" fill="#4597FF" fill-opacity="0.5"/>
<rect x="66.0233" y="42.74" width="1.7209" height="4.12731" rx="0.860449" fill="#4597FF" fill-opacity="0.25"/>
<rect x="61.8479" y="45.6417" width="1.7209" height="4.12731" rx="0.86045" fill="#4597FF" fill-opacity="0.5"/>
<rect x="63.5052" y="39.3882" width="1.7209" height="4.12731" rx="0.860449" fill="#4597FF" fill-opacity="0.25"/>
<rect x="56.3577" y="54.2215" width="1.7209" height="4.12731" rx="0.860451" fill="#4597FF"/>
<rect x="60.1268" y="51.5762" width="1.7209" height="4.12731" rx="0.86045" fill="#4597FF" fill-opacity="0.75"/>
</g>
<defs>
<linearGradient id="paint0_linear" x1="46.6267" y1="82.4328" x2="46.4293" y2="24.8839" gradientUnits="userSpaceOnUse">
<stop stop-color="#CCCCCC"/>
<stop offset="1" stop-color="#E6E6E6"/>
</linearGradient>
<linearGradient id="paint1_linear" x1="91.3793" y1="26.7116" x2="28.7643" y2="17.3022" gradientUnits="userSpaceOnUse">
<stop stop-color="#197CF1"/>
<stop offset="1" stop-color="#21EE9F"/>
</linearGradient>
<linearGradient id="paint2_linear" x1="38.1398" y1="82.8212" x2="37.2409" y2="20.1004" gradientUnits="userSpaceOnUse">
<stop stop-color="#CCCCCC"/>
<stop offset="1" stop-color="#E6E6E6"/>
</linearGradient>
<linearGradient id="paint3_linear" x1="35.4861" y1="83.1582" x2="34.3088" y2="19.8194" gradientUnits="userSpaceOnUse">
<stop stop-color="#CCCCCC"/>
<stop offset="1" stop-color="#F5F2F5"/>
</linearGradient>
<linearGradient id="paint4_linear" x1="46.3793" y1="83.1333" x2="47.9323" y2="24.455" gradientUnits="userSpaceOnUse">
<stop stop-color="#2A97FF"/>
<stop offset="1" stop-color="#20FA91"/>
</linearGradient>
<clipPath id="clip0">
<rect x="32.8637" y="30.2238" width="56.25" height="56.25" fill="white"/>
</clipPath>
</defs>
</svg>
