<svg width="101" height="100" viewBox="0 0 101 100" fill="none" xmlns="http://www.w3.org/2000/svg">
<path d="M13.8081 24.2837C12.2765 24.2837 11.0449 25.5189 11.0449 27.0504V80.2663C11.0449 81.7978 12.2765 83.033 13.8081 83.033H49.6549H52.1666H88.0134C89.5449 83.033 90.7766 81.7978 90.7766 80.2663V27.0504C90.7766 25.5189 89.5449 24.2837 88.0134 24.2837H52.1666H49.6549H13.8081Z" fill="url(#paint0_linear)"/>
<path d="M38.6633 16.7093C38.4495 16.7037 38.1913 16.7126 37.8556 16.7126H12.5037C11.7088 16.7126 11.068 17.358 11.068 18.1581V26.9685C11.0668 27.0018 11.0582 27.033 11.0582 27.0666V80.3507C11.0582 81.8843 12.2946 83.1207 13.8282 83.1207H88.1996C89.7332 83.1207 90.9664 81.8843 90.9664 80.3507V27.0666C90.9664 25.5331 89.7332 24.2966 88.1996 24.2966H43.7913C43.7649 24.2614 43.7472 24.2425 43.7193 24.205C42.6946 22.8245 41.1471 19.1025 40.1383 17.7559C39.531 16.8716 39.3048 16.7262 38.6633 16.7093L38.6633 16.7093Z" fill="url(#paint1_linear)"/>
<path d="M15.7975 19.7013H36.0859C36.663 19.7013 37.1276 20.1658 37.1276 20.7429V23.0533C37.1276 23.6304 36.663 24.095 36.0859 24.095H15.7975C15.2205 24.095 14.7559 23.6304 14.7559 23.0533V20.7429C14.7559 20.1658 15.2205 19.7013 15.7975 19.7013V19.7013Z" fill="url(#paint2_linear)"/>
<path d="M11.8004 26.7723C10.4704 26.7723 9.31047 27.9054 9.40092 29.3032L12.551 77.9829C12.6415 79.3807 13.6205 80.5138 14.9505 80.5138H46.0789H55.1981H86.3266C87.6566 80.5138 88.6356 79.3807 88.726 77.9829L91.8761 29.3032C91.9665 27.9054 90.8066 26.7723 89.4767 26.7723H55.1981H46.0789H11.8004Z" fill="url(#paint3_linear)"/>
<path opacity="0.3" fill-rule="evenodd" clip-rule="evenodd" d="M14.7064 30.535C12.6779 30.535 11.0449 32.13 11.0449 34.1113L13.5655 74.7486V75.9773C13.5655 76.9841 14.3953 77.7945 15.426 77.7945H85.7482C86.779 77.7945 87.609 76.9841 87.609 75.9773L90.1293 34.1113C90.1293 32.13 88.4963 30.535 86.4678 30.535H14.7063H14.7064Z" fill="black"/>
<path d="M10.849 30.3982C9.48537 30.3982 8.31911 31.527 8.3888 32.9224L10.7783 80.768C10.8479 82.1634 11.8748 83.2922 13.2385 83.2922H45.8542H55.2042L88.6189 83.1923C89.9826 83.1882 91.0244 82.0642 91.0791 80.6681L92.9521 32.9224C93.0069 31.5263 91.8555 30.3982 90.4919 30.3982H55.3455H45.9954L10.849 30.3982Z" fill="url(#paint4_linear)"/>
<g clip-path="url(#clip0)">
<path d="M46.1858 54.464H83.7236V77.3133H46.1858V54.464Z" fill="#FFEED8"/>
<path d="M83.7239 78.1295H46.1861C45.7355 78.1295 45.3698 77.7644 45.3698 77.3133V54.464C45.3698 54.0134 45.7355 53.6483 46.1861 53.6483H83.7239C84.1745 53.6483 84.5397 54.0134 84.5397 54.464V77.3133C84.5397 77.7644 84.1745 78.1295 83.7239 78.1295ZM47.0023 76.4971H82.9077V55.2802H47.0023V76.4971Z" fill="#834E0B"/>
<path d="M66.5874 58.5444H73.1157V65.0727H66.5874V58.5444Z" fill="#FFAF4B"/>
<path d="M73.1154 65.8885H66.5871C66.1365 65.8885 65.7709 65.5234 65.7709 65.0728V58.5445C65.7709 58.0934 66.1365 57.7283 66.5871 57.7283H73.1154C73.5656 57.7283 73.9312 58.0934 73.9312 58.5445V65.0728C73.9312 65.5234 73.566 65.8885 73.1154 65.8885ZM67.4029 64.2566H72.2992V59.3602H67.4029V64.2566Z" fill="#834E0B"/>
<path d="M66.5874 67.5205H73.1157V73.2331H66.5874V67.5205Z" fill="#FFAF4B"/>
<path d="M73.1154 74.0493H66.5871C66.1365 74.0493 65.7709 73.6837 65.7709 73.2331V67.5206C65.7709 67.07 66.1365 66.7048 66.5871 66.7048H73.1154C73.5656 66.7048 73.9312 67.07 73.9312 67.5206V73.2331C73.9312 73.6837 73.566 74.0493 73.1154 74.0493ZM67.4029 72.4169H72.2992V68.3368H67.4029V72.4169Z" fill="#834E0B"/>
<path d="M57.6105 58.5444H64.1388V65.0727H57.6105V58.5444Z" fill="#FFAF4B"/>
<path d="M64.1396 65.8885H57.6113C57.1607 65.8885 56.7951 65.5234 56.7951 65.0728V58.5445C56.7951 58.0934 57.1607 57.7283 57.6113 57.7283H64.1396C64.5902 57.7283 64.9553 58.0934 64.9553 58.5445V65.0728C64.9553 65.5234 64.5902 65.8885 64.1396 65.8885ZM58.427 64.2566H63.3234V59.3602H58.427V64.2566Z" fill="#834E0B"/>
<path d="M57.6105 67.5205H64.1388V73.2331H57.6105V67.5205Z" fill="#FFAF4B"/>
<path d="M64.1396 74.0493H57.6113C57.1607 74.0493 56.7951 73.6837 56.7951 73.2331V67.5206C56.7951 67.07 57.1607 66.7048 57.6113 66.7048H64.1396C64.5902 66.7048 64.9553 67.07 64.9553 67.5206V73.2331C64.9553 73.6837 64.5902 74.0493 64.1396 74.0493ZM58.427 72.4169H63.3234V68.3368H58.427V72.4169Z" fill="#834E0B"/>
<path d="M72.2994 34.0633H79.644V36.5114H72.2994V34.0633Z" fill="#FFAF4B"/>
<path d="M79.6432 37.3271H72.2986C71.848 37.3271 71.4824 36.962 71.4824 36.5114V34.0632C71.4824 33.6121 71.848 33.247 72.2986 33.247H79.6432C80.0933 33.247 80.4589 33.6121 80.4589 34.0632V36.5114C80.4589 36.962 80.0938 37.3271 79.6432 37.3271ZM73.1148 35.6952H78.8269V34.879H73.1148V35.6952Z" fill="#834E0B"/>
<path d="M79.6443 45.7494V36.5114H72.2998V39.5652L64.9641 33.4077L39.76 54.4639H90.151L79.6443 45.7494Z" fill="#FFAF4B"/>
<path d="M90.1507 55.2802H39.7597C39.4161 55.2802 39.1097 55.0654 38.9925 54.7423C38.8753 54.4196 38.9729 54.0577 39.2363 53.8378L64.4404 32.782C64.7434 32.527 65.1847 32.5284 65.4882 32.7839L71.4833 37.8152V36.5115C71.4833 36.0604 71.8489 35.6952 72.2995 35.6952H79.644C80.0941 35.6952 80.4598 36.0604 80.4598 36.5115V45.3656L90.6713 53.8364C90.9361 54.0554 91.035 54.4182 90.9178 54.7409C90.802 55.064 90.4948 55.2802 90.1507 55.2802ZM42.0095 53.6482H87.8888L79.1234 46.377C78.9361 46.222 78.8278 45.9922 78.8278 45.749V37.3272H73.1157V39.5648C73.1157 39.8818 72.9322 40.1704 72.6441 40.3044C72.3583 40.4375 72.0189 40.3936 71.7746 40.1896L64.9624 34.4728L42.0095 53.6482Z" fill="#834E0B"/>
<path d="M46.1858 77.3132H83.7237V79.7614H46.1858V77.3132Z" fill="#834E0B"/>
<path d="M83.724 80.5777H46.1861C45.7355 80.5777 45.3699 80.2121 45.3699 79.7615V77.3133C45.3699 76.8622 45.7355 76.4971 46.1861 76.4971H83.724C84.1746 76.4971 84.5397 76.8622 84.5397 77.3133V79.7615C84.5397 80.2121 84.1746 80.5777 83.724 80.5777V80.5777ZM47.0023 78.9453H82.9078V78.1295H47.0023V78.9453Z" fill="#834E0B"/>
<path d="M51.8982 78.9452C51.4481 78.9452 51.0825 78.58 51.0825 78.1294V74.8651C51.0825 74.4145 51.4481 74.0493 51.8982 74.0493C52.3488 74.0493 52.7144 74.4145 52.7144 74.8651V78.1294C52.7144 78.58 52.3493 78.9452 51.8982 78.9452V78.9452Z" fill="white"/>
<path d="M53.5307 77.3133H50.2663C49.8157 77.3133 49.4506 76.9481 49.4506 76.4971C49.4506 76.0465 49.8157 75.6813 50.2663 75.6813H53.5307C53.9809 75.6813 54.3465 76.0465 54.3465 76.4971C54.3465 76.9481 53.9813 77.3133 53.5307 77.3133Z" fill="white"/>
<path d="M52.7141 47.1198C52.4802 47.1198 52.2481 47.0204 52.087 46.8266C51.7985 46.4796 51.8452 45.9651 52.1916 45.6765L61.9839 37.5162C62.3299 37.2277 62.844 37.2739 63.133 37.6208C63.4216 37.9673 63.3749 38.4819 63.0284 38.7704L53.2362 46.9307C53.0835 47.0572 52.8981 47.1198 52.7141 47.1198Z" fill="white"/>
</g>
<defs>
<linearGradient id="paint0_linear" x1="46.2137" y1="82.4328" x2="46.0163" y2="24.8839" gradientUnits="userSpaceOnUse">
<stop stop-color="#CCCCCC"/>
<stop offset="1" stop-color="#E6E6E6"/>
</linearGradient>
<linearGradient id="paint1_linear" x1="88.2882" y1="25.6055" x2="28.3513" y2="17.3022" gradientUnits="userSpaceOnUse">
<stop stop-color="#F1F948"/>
<stop offset="1" stop-color="#FD900D"/>
</linearGradient>
<linearGradient id="paint2_linear" x1="37.7269" y1="82.8212" x2="36.828" y2="20.1004" gradientUnits="userSpaceOnUse">
<stop stop-color="#CCCCCC"/>
<stop offset="1" stop-color="#E6E6E6"/>
</linearGradient>
<linearGradient id="paint3_linear" x1="35.0731" y1="83.1582" x2="33.8958" y2="19.8194" gradientUnits="userSpaceOnUse">
<stop stop-color="#CCCCCC"/>
<stop offset="1" stop-color="#F5F2F5"/>
</linearGradient>
<linearGradient id="paint4_linear" x1="45.9663" y1="83.1333" x2="47.5193" y2="24.455" gradientUnits="userSpaceOnUse">
<stop stop-color="#F1FF4B"/>
<stop offset="1" stop-color="#FF7A00"/>
</linearGradient>
<clipPath id="clip0">
<rect x="38.9435" y="30.535" width="52.023" height="52.0231" fill="white"/>
</clipPath>
</defs>
</svg>
