<svg width="101" height="100" viewBox="0 0 101 100" fill="none" xmlns="http://www.w3.org/2000/svg">
<path d="M14.3957 24.2837C12.8642 24.2837 11.6326 25.5189 11.6326 27.0504V80.2663C11.6326 81.7978 12.8642 83.033 14.3957 83.033H50.2426H52.7542H88.601C90.1326 83.033 91.3642 81.7978 91.3642 80.2663V27.0504C91.3642 25.5189 90.1326 24.2837 88.601 24.2837H52.7542H50.2426H14.3957Z" fill="url(#paint0_linear)"/>
<path d="M39.251 16.7093C39.0372 16.7037 38.7789 16.7126 38.4432 16.7126H13.0913C12.2965 16.7126 11.6556 17.358 11.6556 18.1581V26.9685C11.6544 27.0018 11.6458 27.033 11.6458 27.0666V80.3507C11.6458 81.8843 12.8823 83.1207 14.4158 83.1207H88.7873C90.3208 83.1207 91.554 81.8843 91.554 80.3507V27.0666C91.554 25.5331 90.3208 24.2966 88.7873 24.2966H44.3789C44.3525 24.2614 44.3349 24.2425 44.307 24.205C43.2823 22.8245 41.7347 19.1025 40.7259 17.7559C40.1186 16.8716 39.8924 16.7262 39.251 16.7093L39.251 16.7093Z" fill="url(#paint1_linear)"/>
<path d="M16.3852 19.7013H36.6736C37.2507 19.7013 37.7153 20.1658 37.7153 20.7429V23.0533C37.7153 23.6304 37.2507 24.095 36.6736 24.095H16.3852C15.8081 24.095 15.3435 23.6304 15.3435 23.0533V20.7429C15.3435 20.1658 15.8081 19.7013 16.3852 19.7013V19.7013Z" fill="url(#paint2_linear)"/>
<path d="M12.388 26.7723C11.0581 26.7723 9.89812 27.9054 9.98857 29.3032L13.1386 77.9829C13.2291 79.3807 14.2081 80.5138 15.5381 80.5138H46.6666H55.7857H86.9142C88.2442 80.5138 89.2233 79.3807 89.3137 77.9829L92.4638 29.3032C92.5542 27.9054 91.3943 26.7723 90.0643 26.7723H55.7857H46.6666H12.388Z" fill="url(#paint3_linear)"/>
<path opacity="0.3" fill-rule="evenodd" clip-rule="evenodd" d="M15.294 30.535C13.2655 30.535 11.6326 32.13 11.6326 34.1113L14.1532 74.7486V75.9773C14.1532 76.9841 14.9829 77.7945 16.0137 77.7945H86.3359C87.3666 77.7945 88.1966 76.9841 88.1966 75.9773L90.7169 34.1113C90.7169 32.13 89.084 30.535 87.0555 30.535H15.294H15.294Z" fill="black"/>
<path d="M11.4367 30.3982C10.073 30.3982 8.90676 31.527 8.97645 32.9224L11.3659 80.768C11.4356 82.1634 12.4625 83.2922 13.8261 83.2922H46.4418H55.7919L89.2066 83.1923C90.5702 83.1882 91.612 82.0642 91.6668 80.6681L93.5398 32.9224C93.5945 31.5263 92.4432 30.3982 91.0796 30.3982H55.9331H46.5831L11.4367 30.3982Z" fill="url(#paint4_linear)"/>
<g clip-path="url(#clip0)">
<path fill-rule="evenodd" clip-rule="evenodd" d="M44.0788 35.2958H82.5137V62.7496H44.0788V35.2958Z" fill="#E84262"/>
<path d="M82.5139 63.5342H44.079C43.6454 63.5342 43.2945 63.1832 43.2945 62.7496V35.2959C43.2945 34.8623 43.6454 34.5113 44.079 34.5113H82.5139C82.947 34.5113 83.2985 34.8623 83.2985 35.2959V62.7496C83.2985 63.1832 82.947 63.5342 82.5139 63.5342ZM44.8631 61.9651H81.7298V36.0804H44.8631V61.9651Z" fill="#D3002A"/>
<path fill-rule="evenodd" clip-rule="evenodd" d="M50.3541 43.1397H88.789V70.5935H50.3541V43.1397Z" fill="#FFACBC"/>
<path d="M88.7884 71.3781H50.3535C49.92 71.3781 49.569 71.0271 49.569 70.5935V43.1397C49.569 42.7062 49.92 42.3556 50.3535 42.3556H88.7884C89.2216 42.3556 89.573 42.7062 89.573 43.1397V70.5935C89.573 71.0271 89.2216 71.3781 88.7884 71.3781ZM51.1376 69.8094H88.0043V43.9243H51.1376V69.8094Z" fill="#D3002A"/>
<path fill-rule="evenodd" clip-rule="evenodd" d="M44.0788 48.6307H82.5137V76.0844H44.0788V48.6307Z" fill="#D3002A"/>
<path d="M82.5139 76.8685H44.079C43.6454 76.8685 43.2945 76.518 43.2945 76.0844V48.6306C43.2945 48.197 43.6454 47.8461 44.079 47.8461H82.5139C82.947 47.8461 83.2985 48.197 83.2985 48.6306V76.0844C83.2985 76.518 82.947 76.8685 82.5139 76.8685ZM44.8631 75.2998H81.7298V49.4147H44.8631V75.2998Z" fill="#D3002A"/>
<path fill-rule="evenodd" clip-rule="evenodd" d="M41.7256 50.9839H80.1605V78.4377H41.7256V50.9839Z" fill="white"/>
<path d="M80.1607 79.2217H41.7258C41.2922 79.2217 40.9412 78.8712 40.9412 78.4376V50.9838C40.9412 50.5503 41.2922 50.1993 41.7258 50.1993H80.1607C80.5938 50.1993 80.9452 50.5503 80.9452 50.9838V78.4376C80.9452 78.8712 80.5938 79.2217 80.1607 79.2217ZM42.5099 77.653H79.3766V51.768H42.5099V77.653Z" fill="#D3002A"/>
<path d="M54.1098 78.4376H65.0008L59.6224 68.2401L54.1098 78.4376Z" fill="#FFACBC"/>
<path d="M65.0003 79.2218H54.1093C53.8333 79.2218 53.577 79.0764 53.4356 78.8389C53.2938 78.6024 53.2875 78.3071 53.419 78.0647L58.9316 67.8672C59.0685 67.6136 59.3337 67.4561 59.6219 67.4561H59.6259C59.9154 67.4574 60.1807 67.6186 60.3153 67.8744L65.6937 78.0714C65.8221 78.3147 65.8135 78.6073 65.6717 78.843C65.5299 79.0777 65.2749 79.2218 65.0003 79.2218ZM55.4249 77.6531H63.6995L59.6134 69.9058L55.4249 77.6531Z" fill="#D3002A"/>
<path d="M61.5614 78.4377H78.758L70.2661 63.5343L61.5614 78.4377Z" fill="#E84262"/>
<path d="M78.7575 79.2218H61.5614C61.2804 79.2218 61.021 79.0714 60.8809 78.8282C60.7414 78.5845 60.7423 78.2842 60.8841 78.0423L69.5883 63.1388C69.7297 62.896 70.0151 62.7618 70.2701 62.7496C70.5501 62.751 70.8082 62.9018 70.9469 63.146L79.4388 78.049C79.5775 78.2918 79.5762 78.5898 79.4357 78.8322C79.2952 79.0732 79.0367 79.2218 78.7575 79.2218V79.2218ZM62.9276 77.6531H77.4074L70.2571 65.1038L62.9276 77.6531Z" fill="#D3002A"/>
<path d="M58.1979 61.1809C58.1979 63.3469 56.4421 65.1028 54.276 65.1028C52.11 65.1028 50.3541 63.3469 50.3541 61.1809C50.3541 59.0148 52.11 57.259 54.276 57.259C56.4421 57.259 58.1979 59.0148 58.1979 61.1809Z" fill="#E84262"/>
<path d="M54.2753 65.887C51.6801 65.887 49.5688 63.7762 49.5688 61.181C49.5688 58.5859 51.6801 56.4746 54.2753 56.4746C56.8704 56.4746 58.9813 58.5859 58.9813 61.181C58.9813 63.7762 56.8704 65.887 54.2753 65.887ZM54.2753 58.0432C52.545 58.0432 51.1375 59.4503 51.1375 61.181C51.1375 62.9113 52.545 64.3184 54.2753 64.3184C56.0051 64.3184 57.4126 62.9113 57.4126 61.181C57.4126 59.4503 56.0051 58.0432 54.2753 58.0432V58.0432Z" fill="#D3002A"/>
<path d="M62.1186 61.9651H60.5499C60.1168 61.9651 59.7654 61.6145 59.7654 61.181C59.7654 60.7474 60.1168 60.3964 60.5499 60.3964H62.1186C62.5517 60.3964 62.9031 60.7474 62.9031 61.181C62.9031 61.6145 62.5517 61.9651 62.1186 61.9651Z" fill="#D3002A"/>
<path d="M54.2747 55.69C53.8415 55.69 53.4901 55.3394 53.4901 54.9058V53.3367C53.4901 52.9032 53.8415 52.5526 54.2747 52.5526C54.7078 52.5526 55.0588 52.9032 55.0588 53.3367V54.9058C55.0588 55.3394 54.7078 55.69 54.2747 55.69Z" fill="#D3002A"/>
<path d="M54.2747 69.8095C53.8415 69.8095 53.4901 69.4585 53.4901 69.0249V67.4563C53.4901 67.0227 53.8415 66.6717 54.2747 66.6717C54.7078 66.6717 55.0588 67.0227 55.0588 67.4563V69.0249C55.0588 69.4585 54.7078 69.8095 54.2747 69.8095Z" fill="#D3002A"/>
<path d="M48 61.9651H46.4309C45.9977 61.9651 45.6468 61.6145 45.6468 61.181C45.6468 60.7474 45.9977 60.3964 46.4309 60.3964H48C48.4331 60.3964 48.7841 60.7474 48.7841 61.181C48.7841 61.6145 48.4331 61.9651 48 61.9651Z" fill="#D3002A"/>
<path d="M47.2158 50.1993C46.7827 50.1993 46.4313 49.8483 46.4313 49.4147V46.2774C46.4313 45.8438 46.7827 45.4928 47.2158 45.4928C47.6489 45.4928 48.0004 45.8438 48.0004 46.2774V49.4147C48.0004 49.8483 47.6489 50.1993 47.2158 50.1993Z" fill="white"/>
<path d="M48.7843 48.6307H45.647C45.2138 48.6307 44.8624 48.2797 44.8624 47.8461C44.8624 47.4126 45.2138 47.0616 45.647 47.0616H48.7843C49.2174 47.0616 49.5689 47.4126 49.5689 47.8461C49.5689 48.2797 49.2174 48.6307 48.7843 48.6307Z" fill="white"/>
<path d="M80.1607 38.4337H72.3168C71.8837 38.4337 71.5323 38.0827 71.5323 37.6491C71.5323 37.2155 71.8837 36.8645 72.3168 36.8645H80.1607C80.5938 36.8645 80.9452 37.2155 80.9452 37.6491C80.9452 38.0827 80.5938 38.4337 80.1607 38.4337Z" fill="white"/>
</g>
<defs>
<linearGradient id="paint0_linear" x1="46.8013" y1="82.4328" x2="46.604" y2="24.8839" gradientUnits="userSpaceOnUse">
<stop stop-color="#CCCCCC"/>
<stop offset="1" stop-color="#E6E6E6"/>
</linearGradient>
<linearGradient id="paint1_linear" x1="96.55" y1="26.5747" x2="28.9389" y2="17.3022" gradientUnits="userSpaceOnUse">
<stop stop-color="#FFE8D4"/>
<stop offset="1" stop-color="#FF7D97"/>
</linearGradient>
<linearGradient id="paint2_linear" x1="38.3145" y1="82.8212" x2="37.4156" y2="20.1004" gradientUnits="userSpaceOnUse">
<stop stop-color="#CCCCCC"/>
<stop offset="1" stop-color="#E6E6E6"/>
</linearGradient>
<linearGradient id="paint3_linear" x1="35.6608" y1="83.1582" x2="34.4835" y2="19.8194" gradientUnits="userSpaceOnUse">
<stop stop-color="#CCCCCC"/>
<stop offset="1" stop-color="#F5F2F5"/>
</linearGradient>
<linearGradient id="paint4_linear" x1="46.554" y1="83.1333" x2="48.1069" y2="24.455" gradientUnits="userSpaceOnUse">
<stop stop-color="#FFEED8"/>
<stop offset="1" stop-color="#FF7D97"/>
</linearGradient>
<clipPath id="clip0">
<rect x="40.941" y="32.529" width="48.6323" height="48.6323" fill="white"/>
</clipPath>
</defs>
</svg>
