<svg width="101" height="100" viewBox="0 0 101 100" fill="none" xmlns="http://www.w3.org/2000/svg">
<g clip-path="url(#clip0)">
<path d="M13.9833 24.2837C12.4517 24.2837 11.2201 25.5189 11.2201 27.0504V80.2663C11.2201 81.7978 12.4517 83.033 13.9833 83.033H49.8301H52.3418H88.1886C89.7202 83.033 90.9518 81.7978 90.9518 80.2663V27.0504C90.9518 25.5189 89.7202 24.2837 88.1886 24.2837H52.3418H49.8301H13.9833Z" fill="url(#paint0_linear)"/>
<path d="M38.8385 16.7093C38.6247 16.7037 38.3665 16.7126 38.0307 16.7126H12.6788C11.884 16.7126 11.2432 17.358 11.2432 18.1581V26.9685C11.242 27.0018 11.2333 27.033 11.2333 27.0666V80.3507C11.2333 81.8843 12.4698 83.1207 14.0033 83.1207H88.3748C89.9083 83.1207 91.1416 81.8843 91.1416 80.3507V27.0666C91.1416 25.5331 89.9083 24.2966 88.3748 24.2966H43.9665C43.9401 24.2614 43.9224 24.2425 43.8945 24.205C42.8698 22.8245 41.3223 19.1025 40.3135 17.7559C39.7062 16.8716 39.48 16.7262 38.8385 16.7093L38.8385 16.7093Z" fill="url(#paint1_linear)"/>
<path d="M15.9727 19.7013H36.2611C36.8382 19.7013 37.3028 20.1658 37.3028 20.7429V23.0533C37.3028 23.6304 36.8382 24.095 36.2611 24.095H15.9727C15.3956 24.095 14.931 23.6304 14.931 23.0533V20.7429C14.931 20.1658 15.3956 19.7013 15.9727 19.7013V19.7013Z" fill="url(#paint2_linear)"/>
<path d="M11.9756 26.7723C10.6456 26.7723 9.48566 27.9054 9.57611 29.3032L12.7262 77.9829C12.8166 79.3807 13.7957 80.5138 15.1256 80.5138H46.2541H55.3733H86.5018C87.8317 80.5138 88.8108 79.3807 88.9012 77.9829L92.0513 29.3032C92.1417 27.9054 90.9818 26.7723 89.6518 26.7723H55.3733H46.2541H11.9756Z" fill="url(#paint3_linear)"/>
<path opacity="0.3" fill-rule="evenodd" clip-rule="evenodd" d="M14.8816 30.535C12.8531 30.535 11.2201 32.13 11.2201 34.1113L13.7408 74.7486V75.9773C13.7408 76.9841 14.5705 77.7945 15.6012 77.7945H85.9234C86.9542 77.7945 87.7842 76.9841 87.7842 75.9773L90.3045 34.1113C90.3045 32.13 88.6715 30.535 86.6431 30.535H14.8815H14.8816Z" fill="black"/>
<path d="M11.0242 30.3982C9.66054 30.3982 8.49429 31.527 8.56398 32.9224L10.9534 80.768C11.0231 82.1634 12.05 83.2922 13.4137 83.2922H46.0294H55.3794L88.7941 83.1923C90.1578 83.1882 91.1996 82.0642 91.2543 80.6681L93.1273 32.9224C93.1821 31.5263 92.0307 30.3982 90.6671 30.3982H55.5207H46.1706L11.0242 30.3982Z" fill="url(#paint4_linear)"/>
<path d="M80.5935 78.7883H56.1159C54.9956 78.7883 54.0694 77.9151 54.0038 76.797L51.8803 40.6998C51.8088 39.4845 52.7753 38.4596 53.9925 38.4596H82.717C83.9341 38.4596 84.9002 39.4845 84.8291 40.6998L82.7057 76.797C82.6396 77.9151 81.7134 78.7883 80.5935 78.7883V78.7883Z" fill="#00A341"/>
<path d="M80.593 79.5791H56.1159C54.5788 79.5791 53.3046 78.3769 53.2146 76.843L51.0911 40.7459C51.0441 39.9504 51.3309 39.1608 51.8775 38.5812C52.4246 38.0012 53.1951 37.669 53.9924 37.669H82.7169C83.5137 37.669 84.2843 38.0012 84.8313 38.5812C85.3784 39.1613 85.6652 39.9504 85.6182 40.7459L83.4943 76.843C83.4047 78.3769 82.1301 79.5791 80.593 79.5791V79.5791ZM53.9924 39.2504C53.6236 39.2504 53.2816 39.3984 53.0286 39.6663C52.7752 39.9341 52.6476 40.2853 52.6694 40.6531L54.7933 76.7503C54.8345 77.4493 55.415 77.9973 56.1159 77.9973H80.593C81.2939 77.9973 81.8744 77.4498 81.9156 76.7503L84.0395 40.6531C84.0608 40.2853 83.9336 39.9341 83.6802 39.6663C83.4273 39.3984 83.0852 39.2504 82.7165 39.2504H53.9924Z" fill="#00A341"/>
<path d="M82.1752 78.7881H57.6977C56.5773 78.7881 55.6516 77.9148 55.5855 76.7968L53.462 40.6996C53.391 39.4843 54.357 38.4594 55.5742 38.4594H84.2987C85.5159 38.4594 86.4823 39.4843 86.4109 40.6996L84.2874 76.7968C84.2213 77.9148 83.2956 78.7881 82.1752 78.7881Z" fill="#D7FFE9"/>
<path d="M82.1753 79.5791H57.6982C56.1611 79.5791 54.8865 78.3769 54.7969 76.843L52.673 40.7459C52.6259 39.9504 52.9128 39.1608 53.4598 38.5812C54.0069 38.0012 54.7774 37.669 55.5742 37.669H84.2988C85.0956 37.669 85.8666 38.0012 86.4132 38.5812C86.9602 39.1613 87.2471 39.9504 87.2 40.7459L85.0766 76.843C84.9865 78.3769 83.7123 79.5791 82.1753 79.5791V79.5791ZM55.5742 39.2504C55.2055 39.2504 54.8634 39.3984 54.6105 39.6663C54.3571 39.9341 54.2299 40.2853 54.2517 40.6531L56.3751 76.7503C56.4163 77.4493 56.9968 77.9973 57.6977 77.9973H82.1748C82.8757 77.9973 83.4562 77.4498 83.4979 76.7503L85.6213 40.6531C85.6426 40.2853 85.5155 39.9341 85.2621 39.6663C85.0096 39.3984 84.6671 39.2504 84.2983 39.2504H55.5742Z" fill="#00A341"/>
<path d="M62.0288 44.7856C61.5922 44.7856 61.2384 44.4318 61.2384 43.9951V32.1335C61.2384 31.6968 61.5922 31.343 62.0288 31.343C62.4655 31.343 62.8198 31.6968 62.8198 32.1335V43.9951C62.8198 44.4318 62.4655 44.7856 62.0288 44.7856Z" fill="#00A341"/>
<path d="M62.0287 43.9951C62.0287 43.1213 60.6129 42.4132 58.8659 42.4132C57.1189 42.4132 55.7026 43.1213 55.7026 43.9951C55.7026 44.8683 57.1189 45.5765 58.8659 45.5765C60.6129 45.5765 62.0287 44.8683 62.0287 43.9951Z" fill="#8DFF99"/>
<path d="M58.8658 46.3669C56.6116 46.3669 54.9121 45.3475 54.9121 43.9951C54.9121 42.6422 56.6116 41.6227 58.8658 41.6227C61.1196 41.6227 62.8195 42.6422 62.8195 43.9951C62.8195 45.3475 61.1196 46.3669 58.8658 46.3669ZM58.8658 43.2041C57.3346 43.2041 56.4935 43.7978 56.4935 43.9951C56.4935 44.1919 57.3346 44.7855 58.8658 44.7855C60.3965 44.7855 61.2381 44.1919 61.2381 43.9951C61.2381 43.7978 60.3965 43.2041 58.8658 43.2041Z" fill="#00A341"/>
<path d="M75.4717 47.1579C75.4717 50.2148 72.9935 52.693 69.9366 52.693C66.8792 52.693 64.401 50.2148 64.401 47.1579C64.401 44.1009 66.8792 41.6227 69.9366 41.6227C72.9935 41.6227 75.4717 44.1009 75.4717 47.1579Z" fill="#8DFF99"/>
<path d="M69.9367 53.4839C66.4481 53.4839 63.6106 50.6459 63.6106 47.1578C63.6106 43.6697 66.4481 40.8317 69.9367 40.8317C73.4248 40.8317 76.2627 43.6697 76.2627 47.1578C76.2627 50.6459 73.4243 53.4839 69.9367 53.4839ZM69.9367 42.4131C67.3204 42.4131 65.192 44.5416 65.192 47.1578C65.192 49.774 67.3204 51.9025 69.9367 51.9025C72.5529 51.9025 74.6809 49.774 74.6809 47.1578C74.6809 44.5416 72.5529 42.4131 69.9367 42.4131Z" fill="#00A341"/>
<path d="M78.6352 66.1359C78.6352 70.9399 74.7407 74.8343 69.9368 74.8343C65.1328 74.8343 61.2384 70.9399 61.2384 66.1359C61.2384 61.332 65.1328 57.4375 69.9368 57.4375C74.7407 57.4375 78.6352 61.332 78.6352 66.1359Z" fill="#8DFF99"/>
<path d="M69.9363 75.6254C64.7039 75.6254 60.447 71.3686 60.447 66.1361C60.447 60.9037 64.7039 56.6472 69.9363 56.6472C75.1683 56.6472 79.4252 60.9037 79.4252 66.1361C79.4252 71.3686 75.1683 75.6254 69.9363 75.6254ZM69.9363 58.2287C65.5758 58.2287 62.0284 61.7756 62.0284 66.1361C62.0284 70.4966 65.5758 74.0436 69.9363 74.0436C74.2964 74.0436 77.8438 70.4966 77.8438 66.1361C77.8438 61.7756 74.2964 58.2287 69.9363 58.2287Z" fill="#00A341"/>
<path d="M73.0994 66.1361C73.0994 67.8831 71.6831 69.2994 69.9366 69.2994C68.1896 69.2994 66.7733 67.8831 66.7733 66.1361C66.7733 64.3891 68.1896 62.9733 69.9366 62.9733C71.6831 62.9733 73.0994 64.3891 73.0994 66.1361Z" fill="#2AE653"/>
<path d="M69.9362 70.0897C67.7562 70.0897 65.982 68.316 65.982 66.136C65.982 63.9559 67.7562 62.1822 69.9362 62.1822C72.1158 62.1822 73.8899 63.9559 73.8899 66.136C73.8899 68.316 72.1158 70.0897 69.9362 70.0897ZM69.9362 63.7636C68.6281 63.7636 67.5638 64.8278 67.5638 66.136C67.5638 67.4441 68.6281 68.5083 69.9362 68.5083C71.2443 68.5083 72.3081 67.4441 72.3081 66.136C72.3081 64.8278 71.2443 63.7636 69.9362 63.7636Z" fill="#00A341"/>
<path d="M72.3087 47.1579C72.3087 48.4683 71.2467 49.5302 69.9368 49.5302C68.6264 49.5302 67.5645 48.4683 67.5645 47.1579C67.5645 45.8475 68.6264 44.7856 69.9368 44.7856C71.2467 44.7856 72.3087 45.8475 72.3087 47.1579Z" fill="#2AE653"/>
<path d="M69.9366 50.3211C68.1923 50.3211 66.7733 48.9017 66.7733 47.1579C66.7733 45.414 68.1923 43.9951 69.9366 43.9951C71.6804 43.9951 73.0994 45.414 73.0994 47.1579C73.0994 48.9017 71.6804 50.3211 69.9366 50.3211ZM69.9366 45.5765C69.0642 45.5765 68.3547 46.2855 68.3547 47.1579C68.3547 48.0303 69.0642 48.7393 69.9366 48.7393C70.8085 48.7393 71.518 48.0303 71.518 47.1579C71.518 46.2855 70.8085 45.5765 69.9366 45.5765Z" fill="#00A341"/>
<path d="M55.7026 59.8099C55.2659 59.8099 54.9121 59.4561 54.9121 59.019V55.8562C54.9121 55.4196 55.2659 55.0653 55.7026 55.0653C56.1392 55.0653 56.4935 55.4196 56.4935 55.8562V59.019C56.4935 59.4561 56.1392 59.8099 55.7026 59.8099Z" fill="white"/>
<path d="M57.2845 58.2286H54.1212C53.6846 58.2286 53.3303 57.8744 53.3303 57.4377C53.3303 57.0011 53.6846 56.6472 54.1212 56.6472H57.2845C57.7211 56.6472 58.075 57.0011 58.075 57.4377C58.075 57.8744 57.7211 58.2286 57.2845 58.2286Z" fill="white"/>
<path d="M83.3804 49.5302C83.3541 49.5302 83.3279 49.5288 83.3007 49.5261C82.8664 49.4827 82.5496 49.0954 82.5926 48.6605L83.274 41.8444C83.2817 41.7707 83.2505 41.7186 83.2234 41.6888C83.1958 41.6589 83.1473 41.6227 83.0731 41.6227H79.4257C78.9891 41.6227 78.6353 41.2684 78.6353 40.8318C78.6353 40.3952 78.9891 40.0409 79.4257 40.0409H83.0731C83.5763 40.0409 84.0586 40.2549 84.3962 40.6282C84.7333 41.001 84.898 41.5024 84.8477 42.0023L84.1663 48.8184C84.1256 49.2261 83.7817 49.5302 83.3804 49.5302V49.5302Z" fill="white"/>
<path d="M88.9141 65.3454C88.4774 65.3454 88.1231 64.9916 88.1231 64.5545V52.6933C88.1231 52.2566 88.4774 51.9023 88.9141 51.9023C89.3507 51.9023 89.705 52.2566 89.705 52.6933V64.5545C89.705 64.9916 89.3507 65.3454 88.9141 65.3454Z" fill="#00A341"/>
<path d="M88.9145 64.5544C88.9145 63.6811 87.4983 62.973 85.7517 62.973C84.0047 62.973 82.5885 63.6811 82.5885 64.5544C82.5885 65.4281 84.0047 66.1363 85.7517 66.1363C87.4983 66.1363 88.9145 65.4281 88.9145 64.5544V64.5544Z" fill="#8DFF99"/>
<path d="M85.7521 66.9268C83.4979 66.9268 81.7979 65.9073 81.7979 64.5544C81.7979 63.202 83.4979 62.1826 85.7521 62.1826C88.0059 62.1826 89.7059 63.202 89.7059 64.5544C89.7059 65.9073 88.0059 66.9268 85.7521 66.9268V66.9268ZM85.7521 63.764C84.221 63.764 83.3798 64.3576 83.3798 64.5544C83.3798 64.7517 84.221 65.3454 85.7521 65.3454C87.2829 65.3454 88.124 64.7517 88.124 64.5544C88.124 64.3576 87.2829 63.764 85.7521 63.764V63.764Z" fill="#00A341"/>
<path d="M58.074 78.788C57.6374 78.788 57.2836 78.4341 57.2836 77.9975V66.1358C57.2836 65.6992 57.6374 65.3454 58.074 65.3454C58.5111 65.3454 58.865 65.6992 58.865 66.1358V77.9975C58.865 78.4341 58.5111 78.788 58.074 78.788Z" fill="#00A341"/>
<path d="M58.075 77.9975C58.075 77.1238 56.6592 76.4161 54.9122 76.4161C53.1652 76.4161 51.7489 77.1238 51.7489 77.9975C51.7489 78.8708 53.1652 79.5789 54.9122 79.5789C56.6592 79.5789 58.075 78.8708 58.075 77.9975Z" fill="#8DFF99"/>
<path d="M54.9121 80.3699C52.6579 80.3699 50.9584 79.35 50.9584 77.9976C50.9584 76.6451 52.6579 75.6252 54.9121 75.6252C57.1664 75.6252 58.8659 76.6451 58.8659 77.9976C58.8659 79.35 57.1664 80.3699 54.9121 80.3699ZM54.9121 77.2066C53.3814 77.2066 52.5398 77.8007 52.5398 77.9976C52.5398 78.1944 53.3814 78.7881 54.9121 78.7881C56.4429 78.7881 57.2845 78.1944 57.2845 77.9976C57.2845 77.8007 56.4429 77.2066 54.9121 77.2066V77.2066Z" fill="#00A341"/>
</g>
<defs>
<linearGradient id="paint0_linear" x1="46.3889" y1="82.4328" x2="46.1915" y2="24.8839" gradientUnits="userSpaceOnUse">
<stop stop-color="#CCCCCC"/>
<stop offset="1" stop-color="#E6E6E6"/>
</linearGradient>
<linearGradient id="paint1_linear" x1="91.1416" y1="28.3106" x2="28.5265" y2="17.3022" gradientUnits="userSpaceOnUse">
<stop stop-color="#03FFDF"/>
<stop offset="1" stop-color="#44FF79"/>
</linearGradient>
<linearGradient id="paint2_linear" x1="37.902" y1="82.8212" x2="37.0032" y2="20.1004" gradientUnits="userSpaceOnUse">
<stop stop-color="#CCCCCC"/>
<stop offset="1" stop-color="#E6E6E6"/>
</linearGradient>
<linearGradient id="paint3_linear" x1="35.2483" y1="83.1582" x2="34.071" y2="19.8194" gradientUnits="userSpaceOnUse">
<stop stop-color="#CCCCCC"/>
<stop offset="1" stop-color="#F5F2F5"/>
</linearGradient>
<linearGradient id="paint4_linear" x1="46.1415" y1="83.1333" x2="47.6944" y2="24.455" gradientUnits="userSpaceOnUse">
<stop stop-color="#00FFE0"/>
<stop offset="1" stop-color="#8DFF99"/>
</linearGradient>
<clipPath id="clip0">
<rect x="0.349731" y="-0.00012207" width="100" height="100" fill="white"/>
</clipPath>
</defs>
</svg>
