<svg width="101" height="101" viewBox="0 0 101 101" fill="none" xmlns="http://www.w3.org/2000/svg">
<path d="M13.9833 24.871C12.4517 24.871 11.2201 26.1062 11.2201 27.6378V80.8536C11.2201 82.3851 12.4517 83.6203 13.9833 83.6203H49.8301H52.3418H88.1886C89.7202 83.6203 90.9518 82.3851 90.9518 80.8536V27.6378C90.9518 26.1062 89.7202 24.871 88.1886 24.871H52.3418H49.8301H13.9833Z" fill="url(#paint0_linear)"/>
<path d="M38.8385 17.2967C38.6247 17.291 38.3665 17.2999 38.0307 17.2999H12.6788C11.884 17.2999 11.2432 17.9453 11.2432 18.7454V27.5558C11.242 27.5891 11.2333 27.6203 11.2333 27.6539V80.938C11.2333 82.4716 12.4698 83.708 14.0033 83.708H88.3748C89.9083 83.708 91.1416 82.4716 91.1416 80.938V27.6539C91.1416 26.1204 89.9083 24.8839 88.3748 24.8839H43.9665C43.9401 24.8487 43.9224 24.8298 43.8945 24.7923C42.8698 23.4118 41.3223 19.6898 40.3135 18.3432C39.7062 17.4589 39.48 17.3135 38.8385 17.2967L38.8385 17.2967Z" fill="url(#paint1_linear)"/>
<path d="M15.9727 20.2886H36.2611C36.8382 20.2886 37.3028 20.7532 37.3028 21.3302V23.6407C37.3028 24.2177 36.8382 24.6823 36.2611 24.6823H15.9727C15.3956 24.6823 14.931 24.2177 14.931 23.6407V21.3302C14.931 20.7532 15.3956 20.2886 15.9727 20.2886V20.2886Z" fill="url(#paint2_linear)"/>
<path d="M11.9756 27.3596C10.6456 27.3596 9.48566 28.4927 9.57611 29.8905L12.7262 78.5702C12.8166 79.968 13.7957 81.1011 15.1256 81.1011H46.2541H55.3733H86.5018C87.8317 81.1011 88.8108 79.968 88.9012 78.5702L92.0513 29.8905C92.1417 28.4927 90.9818 27.3596 89.6518 27.3596H55.3733H46.2541H11.9756Z" fill="url(#paint3_linear)"/>
<path opacity="0.3" fill-rule="evenodd" clip-rule="evenodd" d="M14.8816 31.1223C12.8531 31.1223 11.2201 32.7173 11.2201 34.6986L13.7408 75.3359V76.5646C13.7408 77.5714 14.5705 78.3818 15.6012 78.3818H85.9234C86.9542 78.3818 87.7842 77.5714 87.7842 76.5646L90.3045 34.6986C90.3045 32.7173 88.6715 31.1223 86.6431 31.1223H14.8815H14.8816Z" fill="black"/>
<path d="M11.0242 30.9855C9.66054 30.9855 8.49429 32.1143 8.56398 33.5097L10.9534 81.3553C11.0231 82.7507 12.05 83.8795 13.4137 83.8795H46.0294H55.3794L88.7941 83.7796C90.1578 83.7755 91.1996 82.6515 91.2543 81.2554L93.1273 33.5097C93.1821 32.1136 92.0307 30.9855 90.6671 30.9855H55.5207H46.1706L11.0242 30.9855Z" fill="url(#paint4_linear)"/>
<g clip-path="url(#clip0)">
<path d="M61.6746 73.1784H37.1765V37.4515H54.7767C58.5866 37.4515 61.6746 40.6038 61.6746 44.4931V73.1784Z" fill="white"/>
<path d="M61.6741 74.0711H37.1759C36.6923 74.0711 36.3008 73.672 36.3008 73.1783V37.4514C36.3008 36.9577 36.6923 36.5581 37.1759 36.5581H54.7762C59.0622 36.5581 62.5492 40.1177 62.5492 44.4931V73.1783C62.5492 73.672 62.1572 74.0711 61.6741 74.0711V74.0711ZM38.0506 72.2849H60.7995V44.4931C60.7995 41.1026 58.0975 38.3443 54.7762 38.3443H38.0506V72.2849Z" fill="#5C7300"/>
<path d="M61.6746 73.1784H86.1732V37.4515H68.5725C64.7626 37.4515 61.6746 40.6038 61.6746 44.4931V73.1784Z" fill="#96FF94"/>
<path d="M86.1731 74.0711H61.6745C61.1913 74.0711 60.7998 73.672 60.7998 73.1783V44.4931C60.7998 40.1177 64.2863 36.5581 68.5724 36.5581H86.1731C86.6563 36.5581 87.0478 36.9577 87.0478 37.4514V73.1783C87.0478 73.672 86.6563 74.0711 86.1731 74.0711V74.0711ZM62.5496 72.2849H85.298V38.3443H68.5724C65.2511 38.3443 62.5496 41.1026 62.5496 44.4931V72.2849Z" fill="#5C7300"/>
<path d="M40.6754 41.0239H48.5501V51.7422H40.6754V41.0239Z" fill="#DDFFD7"/>
<path d="M48.5511 52.6352H40.6764C40.1933 52.6352 39.8018 52.236 39.8018 51.7423V41.024C39.8018 40.5303 40.1933 40.1312 40.6764 40.1312H48.5511C49.0343 40.1312 49.4258 40.5303 49.4258 41.024V51.7423C49.4258 52.236 49.0343 52.6352 48.5511 52.6352ZM41.5516 50.849H47.676V41.9174H41.5516V50.849Z" fill="#5C7300"/>
<path d="M58.1757 45.4898H52.0507C51.5676 45.4898 51.1761 45.0906 51.1761 44.5969C51.1761 44.1032 51.5676 43.7036 52.0507 43.7036H58.1757C58.6588 43.7036 59.0503 44.1032 59.0503 44.5969C59.0503 45.0906 58.6588 45.4898 58.1757 45.4898Z" fill="#5C7300"/>
<path d="M54.6756 41.9174H52.0507C51.5676 41.9174 51.1761 41.5177 51.1761 41.024C51.1761 40.5303 51.5676 40.1312 52.0507 40.1312H54.6756C55.1588 40.1312 55.5508 40.5303 55.5508 41.024C55.5508 41.5177 55.1588 41.9174 54.6756 41.9174Z" fill="#5C7300"/>
<path d="M58.1757 49.0627H52.0507C51.5676 49.0627 51.1761 48.663 51.1761 48.1693C51.1761 47.6756 51.5676 47.2765 52.0507 47.2765H58.1757C58.6588 47.2765 59.0503 47.6756 59.0503 48.1693C59.0503 48.663 58.6588 49.0627 58.1757 49.0627Z" fill="#5C7300"/>
<path d="M58.1757 52.6351H52.0507C51.5676 52.6351 51.1761 52.236 51.1761 51.7423C51.1761 51.2486 51.5676 50.8489 52.0507 50.8489H58.1757C58.6588 50.8489 59.0503 51.2486 59.0503 51.7423C59.0503 52.236 58.6588 52.6351 58.1757 52.6351Z" fill="#5C7300"/>
<path d="M58.1756 57.101H40.6764C40.1933 57.101 39.8018 56.7018 39.8018 56.2081C39.8018 55.7144 40.1933 55.3147 40.6764 55.3147H58.1756C58.6587 55.3147 59.0502 55.7144 59.0502 56.2081C59.0502 56.7018 58.6587 57.101 58.1756 57.101Z" fill="#5C7300"/>
<path d="M58.1756 61.5672H40.6764C40.1933 61.5672 39.8018 61.1675 39.8018 60.6738C39.8018 60.1801 40.1933 59.7805 40.6764 59.7805H58.1756C58.6587 59.7805 59.0502 60.1801 59.0502 60.6738C59.0502 61.1675 58.6587 61.5672 58.1756 61.5672Z" fill="#5C7300"/>
<path d="M84.4233 76.7508H38.9265L37.1767 73.1784H86.1735L84.4233 76.7508Z" fill="#5C7300"/>
<path d="M84.4235 77.6442H38.9267C38.5953 77.6442 38.2924 77.4531 38.1442 77.1505L36.394 73.5776C36.2588 73.3011 36.2733 72.9725 36.4325 72.7088C36.5922 72.4455 36.8736 72.2851 37.177 72.2851H86.1738C86.4772 72.2851 86.7586 72.4455 86.9178 72.7088C87.077 72.972 87.0915 73.3011 86.9563 73.5776L85.2066 77.1505C85.0579 77.4531 84.7555 77.6442 84.4235 77.6442V77.6442ZM39.4674 75.858H83.8828L84.758 74.0713H38.5928L39.4674 75.858Z" fill="#5C7300"/>
<path d="M58.1756 66.0331H40.6764C40.1933 66.0331 39.8018 65.6334 39.8018 65.1397C39.8018 64.646 40.1933 64.2463 40.6764 64.2463H58.1756C58.6587 64.2463 59.0502 64.646 59.0502 65.1397C59.0502 65.6334 58.6587 66.0331 58.1756 66.0331Z" fill="#5C7300"/>
<path d="M82.6736 59.7805H65.175C64.6919 59.7805 64.2999 59.3814 64.2999 58.8877C64.2999 58.394 64.6919 57.9943 65.175 57.9943H82.6736C83.1567 57.9943 83.5487 58.394 83.5487 58.8877C83.5487 59.3814 83.1567 59.7805 82.6736 59.7805Z" fill="#5C7300"/>
<path d="M73.9243 64.2463H65.175C64.6919 64.2463 64.2999 63.8471 64.2999 63.3534C64.2999 62.8597 64.6919 62.4601 65.175 62.4601H73.9243C74.4074 62.4601 74.7994 62.8597 74.7994 63.3534C74.7994 63.8471 74.4074 64.2463 73.9243 64.2463Z" fill="#5C7300"/>
<path d="M82.6736 68.7126H65.175C64.6919 68.7126 64.2999 68.313 64.2999 67.8193C64.2999 67.3256 64.6919 66.9259 65.175 66.9259H82.6736C83.1567 66.9259 83.5487 67.3256 83.5487 67.8193C83.5487 68.313 83.1567 68.7126 82.6736 68.7126Z" fill="#5C7300"/>
<path d="M80.9234 80.3237L76.5488 75.2681L72.1741 80.3237V34.7719H80.9234V80.3237Z" fill="#DDFFD7"/>
<path d="M80.923 81.2166C80.6766 81.2166 80.4368 81.1103 80.2671 80.9151L76.5483 76.6174L72.8295 80.9151C72.5877 81.1921 72.2027 81.2872 71.8638 81.1594C71.5238 81.0275 71.2985 80.6953 71.2985 80.3238V34.772C71.2985 34.2783 71.6905 33.8786 72.1737 33.8786H80.923C81.4061 33.8786 81.7981 34.2783 81.7981 34.772V80.3238C81.7981 80.6953 81.5728 81.0275 81.2329 81.1594C81.1317 81.1977 81.0266 81.2166 80.923 81.2166ZM76.5483 74.3748C76.7991 74.3748 77.0379 74.4847 77.2042 74.6769L80.0478 77.9636V35.6648H73.0483V77.9636L75.8925 74.6769C76.0587 74.4852 76.2975 74.3748 76.5483 74.3748V74.3748Z" fill="#5C7300"/>
<path d="M66.0491 74.9646C65.5659 74.9646 65.1744 74.5649 65.1744 74.0712V70.4988C65.1744 70.0051 65.5659 69.6054 66.0491 69.6054C66.5322 69.6054 66.9242 70.0051 66.9242 70.4988V74.0712C66.9242 74.5649 66.5322 74.9646 66.0491 74.9646Z" fill="white"/>
<path d="M67.7992 73.1784H64.2991C63.816 73.1784 63.424 72.7787 63.424 72.285C63.424 71.7913 63.816 71.3917 64.2991 71.3917H67.7992C68.2823 71.3917 68.6738 71.7913 68.6738 72.285C68.6738 72.7787 68.2823 73.1784 67.7992 73.1784Z" fill="white"/>
<path d="M64.2991 44.9812C63.816 44.9812 63.424 44.5821 63.424 44.0884C63.424 41.4139 65.5558 39.2378 68.1757 39.2378H70.0591C70.5422 39.2378 70.9337 39.6374 70.9337 40.1311C70.9337 40.6248 70.5422 41.024 70.0591 41.024H68.1757C66.5205 41.024 65.1743 42.3988 65.1743 44.0884C65.1743 44.5821 64.7823 44.9812 64.2991 44.9812V44.9812Z" fill="white"/>
</g>
<defs>
<linearGradient id="paint0_linear" x1="46.3889" y1="83.0201" x2="46.1915" y2="25.4712" gradientUnits="userSpaceOnUse">
<stop stop-color="#CCCCCC"/>
<stop offset="1" stop-color="#E6E6E6"/>
</linearGradient>
<linearGradient id="paint1_linear" x1="91.1416" y1="26.0574" x2="28.5265" y2="17.8895" gradientUnits="userSpaceOnUse">
<stop stop-color="#96FF79"/>
<stop offset="1" stop-color="#C8DA00"/>
</linearGradient>
<linearGradient id="paint2_linear" x1="37.902" y1="83.4085" x2="37.0032" y2="20.6877" gradientUnits="userSpaceOnUse">
<stop stop-color="#CCCCCC"/>
<stop offset="1" stop-color="#E6E6E6"/>
</linearGradient>
<linearGradient id="paint3_linear" x1="35.2483" y1="83.7456" x2="34.071" y2="20.4067" gradientUnits="userSpaceOnUse">
<stop stop-color="#CCCCCC"/>
<stop offset="1" stop-color="#F5F2F5"/>
</linearGradient>
<linearGradient id="paint4_linear" x1="93.1292" y1="83.8795" x2="47.6947" y2="24.9831" gradientUnits="userSpaceOnUse">
<stop stop-color="#2AFF7F"/>
<stop offset="1" stop-color="#F4FF75"/>
</linearGradient>
<clipPath id="clip0">
<rect x="36.301" y="31.5305" width="50.7468" height="51.804" fill="white"/>
</clipPath>
</defs>
</svg>
