<svg width="101" height="101" viewBox="0 0 101 101" fill="none" xmlns="http://www.w3.org/2000/svg">
<path d="M14.3957 24.871C12.8642 24.871 11.6326 26.1062 11.6326 27.6378V80.8536C11.6326 82.3851 12.8642 83.6203 14.3957 83.6203H50.2426H52.7542H88.601C90.1326 83.6203 91.3642 82.3851 91.3642 80.8536V27.6378C91.3642 26.1062 90.1326 24.871 88.601 24.871H52.7542H50.2426H14.3957Z" fill="url(#paint0_linear)"/>
<path d="M39.251 17.2967C39.0372 17.291 38.7789 17.2999 38.4432 17.2999H13.0913C12.2965 17.2999 11.6556 17.9453 11.6556 18.7454V27.5558C11.6544 27.5891 11.6458 27.6203 11.6458 27.6539V80.938C11.6458 82.4716 12.8823 83.708 14.4158 83.708H88.7873C90.3208 83.708 91.554 82.4716 91.554 80.938V27.6539C91.554 26.1204 90.3208 24.8839 88.7873 24.8839H44.3789C44.3525 24.8487 44.3349 24.8298 44.307 24.7923C43.2823 23.4118 41.7347 19.6898 40.7259 18.3432C40.1186 17.4589 39.8924 17.3135 39.251 17.2967L39.251 17.2967Z" fill="url(#paint1_linear)"/>
<path d="M16.3852 20.2886H36.6736C37.2507 20.2886 37.7153 20.7532 37.7153 21.3302V23.6407C37.7153 24.2177 37.2507 24.6823 36.6736 24.6823H16.3852C15.8081 24.6823 15.3435 24.2177 15.3435 23.6407V21.3302C15.3435 20.7532 15.8081 20.2886 16.3852 20.2886V20.2886Z" fill="url(#paint2_linear)"/>
<path d="M12.388 27.3596C11.0581 27.3596 9.89812 28.4927 9.98857 29.8905L13.1386 78.5702C13.2291 79.968 14.2081 81.1011 15.5381 81.1011H46.6666H55.7857H86.9142C88.2442 81.1011 89.2233 79.968 89.3137 78.5702L92.4638 29.8905C92.5542 28.4927 91.3943 27.3596 90.0643 27.3596H55.7857H46.6666H12.388Z" fill="url(#paint3_linear)"/>
<path opacity="0.3" fill-rule="evenodd" clip-rule="evenodd" d="M15.294 31.1223C13.2655 31.1223 11.6326 32.7173 11.6326 34.6986L14.1532 75.3359V76.5646C14.1532 77.5714 14.9829 78.3818 16.0137 78.3818H86.3359C87.3666 78.3818 88.1966 77.5714 88.1966 76.5646L90.7169 34.6986C90.7169 32.7173 89.084 31.1223 87.0555 31.1223H15.294H15.294Z" fill="black"/>
<path d="M11.4367 30.9855C10.073 30.9855 8.90676 32.1143 8.97645 33.5097L11.3659 81.3553C11.4356 82.7507 12.4625 83.8795 13.8261 83.8795H46.4418H55.7919L89.2066 83.7796C90.5702 83.7755 91.612 82.6515 91.6668 81.2554L93.5398 33.5097C93.5945 32.1136 92.4432 30.9855 91.0796 30.9855H55.9331H46.5831L11.4367 30.9855Z" fill="url(#paint4_linear)"/>
<g clip-path="url(#clip0)">
<path d="M59.9926 80.178C59.9926 79.2136 55.6946 78.4321 50.3923 78.4321C45.0895 78.4321 40.7915 79.2136 40.7915 80.178C40.7915 81.1419 45.0895 81.9235 50.3923 81.9235C55.6946 81.9235 59.9926 81.1419 59.9926 80.178Z" fill="#003A91"/>
<path d="M50.3924 82.796C47.2426 82.796 39.9186 82.5413 39.9186 80.178C39.9186 79.39 40.9389 77.5596 50.3924 77.5596C53.5417 77.5596 60.8656 77.8143 60.8656 80.178C60.8656 80.9651 59.8453 82.796 50.3924 82.796ZM42.1925 80.178C43.3901 80.5791 46.1593 81.0505 50.3924 81.0505C54.6249 81.0505 57.3942 80.5791 58.5918 80.178C57.3942 79.7765 54.6249 79.3051 50.3924 79.3051C46.1593 79.3051 43.3901 79.7765 42.1925 80.178ZM59.2211 80.4802H59.2296H59.2211Z" fill="#003A91"/>
<path d="M75.2496 74.3179C77.5229 76.5917 80.6912 77.3868 83.6992 76.5258L79.1605 71.9866L79.5031 66.525L84.9647 66.1824L89.5034 70.7216C90.3644 67.7136 89.5694 64.5453 87.296 62.2715C85.1261 60.102 82.1595 59.2585 79.3833 59.8288L59.4231 41.4333C59.929 39.2399 59.4461 36.7333 57.7371 35.0243C55.8328 33.12 52.8732 32.8019 50.8171 33.3253L54.804 37.3121L54.2132 41.2361L50.2898 41.8264L46.2889 37.8255C45.7601 39.8761 46.0592 42.8711 47.9745 44.7859C49.6835 46.4949 52.1386 47.0298 54.332 46.5239L72.784 66.4276C72.2131 69.2044 73.0796 72.1479 75.2496 74.3179V74.3179Z" fill="#94FFAB"/>
<path d="M81.2983 77.7393C78.8342 77.7393 76.461 76.765 74.6321 74.9351C72.4137 72.7162 71.3909 69.6693 71.8474 66.7022L54.0232 47.4732C51.5711 47.8737 49.0565 47.1016 47.358 45.4031C45.203 43.2491 44.8444 39.9365 45.4432 37.6077C45.5221 37.3051 45.7574 37.0664 46.0585 36.9835C46.3612 36.9026 46.6843 36.987 46.9055 37.2087L50.5957 40.8979L53.4464 40.4689L53.8749 37.6192L50.1997 33.943C49.9779 33.7213 49.892 33.3971 49.9754 33.095C50.0578 32.7924 50.2976 32.5571 50.6012 32.4802C52.9135 31.8914 56.2052 32.2595 58.3531 34.4075C60.0367 36.09 60.7883 38.625 60.3743 41.1231L79.6553 58.8939C82.6428 58.4334 85.7012 59.4447 87.9126 61.6551C90.3922 64.1357 91.3006 67.6147 90.3418 70.9628C90.2574 71.2594 90.0211 71.4896 89.722 71.5671C89.4233 71.645 89.1042 71.5596 88.886 71.3398L84.6259 67.0798L80.325 67.349L80.0558 71.6495L84.3158 75.9095C84.5351 76.1277 84.621 76.4459 84.543 76.7455C84.4656 77.0447 84.2354 77.2809 83.9387 77.3653C83.0613 77.6155 82.1738 77.7393 81.2983 77.7393V77.7393ZM54.3323 45.6513C54.5731 45.6513 54.8053 45.7502 54.9726 45.931L73.424 65.8348C73.6153 66.041 73.6957 66.3272 73.6388 66.6039C73.1189 69.1334 73.9524 71.7868 75.8662 73.7011C77.5083 75.3431 79.6882 76.1362 81.9061 75.9684L78.5426 72.6038C78.3658 72.4271 78.2734 72.1823 78.2889 71.9326L78.6315 66.4705C78.6584 66.0315 79.009 65.6809 79.448 65.654L84.9096 65.3124C85.1613 65.3024 85.404 65.3893 85.5813 65.5661L88.9449 68.9296C89.1182 66.7092 88.3196 64.5318 86.6785 62.8892C84.7718 60.9839 82.1114 60.1599 79.5584 60.6838C79.2882 60.7417 78.9985 60.6618 78.7913 60.471L58.8316 42.0745C58.6019 41.8628 58.5025 41.5416 58.5724 41.237C59.0513 39.1604 58.494 37.0159 57.1191 35.641C55.932 34.4539 54.2255 33.9815 52.7017 33.976L55.4201 36.6958C55.6163 36.8916 55.7072 37.1687 55.6663 37.4424L55.0775 41.3653C55.02 41.7449 54.7229 42.0425 54.3433 42.0995L50.4194 42.6903C50.1507 42.7277 49.8676 42.6408 49.6723 42.4441L46.9315 39.7033C46.9265 41.244 47.3949 42.973 48.592 44.1696C49.9864 45.5634 52.1099 46.1408 54.1366 45.6738C54.201 45.6588 54.2674 45.6513 54.3323 45.6513V45.6513Z" fill="#003A91"/>
<path d="M73.0844 58.358C72.8712 58.358 72.6579 58.2801 72.4906 58.1243L60.2714 46.778C59.9183 46.4509 59.8983 45.8985 60.226 45.545C60.5531 45.1919 61.1064 45.1719 61.459 45.4995L73.6782 56.8457C74.0313 57.1729 74.0513 57.7257 73.7237 58.0788C73.5524 58.2641 73.3187 58.358 73.0844 58.358Z" fill="white"/>
<path d="M76.8774 42.6682L78.521 44.3113L82.6002 36.7831L81.2268 35.4097L73.6986 39.4894L75.3377 41.1285L57.6129 58.227L59.7774 60.391L76.8774 42.6682Z" fill="#00A3FF"/>
<path d="M59.777 61.2636C59.5458 61.2636 59.3235 61.1712 59.1597 61.0079L56.9957 58.8434C56.8304 58.6781 56.738 58.4529 56.74 58.2186C56.7425 57.9844 56.8379 57.7607 57.0067 57.5984L74.0918 41.1171L73.0809 40.1063C72.8857 39.9125 72.7948 39.6368 72.8347 39.3642C72.8742 39.0915 73.0405 38.8538 73.2822 38.7224L80.8109 34.6427C81.1505 34.4579 81.57 34.5193 81.8437 34.793L83.2166 36.1659C83.4903 36.4386 83.5507 36.8586 83.3669 37.1987L79.2872 44.7264C79.1558 44.9686 78.9181 45.1349 78.6454 45.1739C78.3753 45.2148 78.0971 45.1229 77.9028 44.9277L76.888 43.9129L60.4053 60.9969C60.2424 61.1657 60.0192 61.2616 59.7845 61.2636C59.782 61.2636 59.7795 61.2636 59.777 61.2636ZM58.8581 58.2376L59.766 59.1451L76.2492 42.062C76.4121 41.8932 76.6353 41.7973 76.8695 41.7953C77.0663 41.7978 77.329 41.8857 77.4948 42.051L78.3108 42.8666L81.5226 36.9405L81.0701 36.488L75.143 39.6993L75.9551 40.5113C76.1204 40.6766 76.2123 40.9019 76.2108 41.1366C76.2088 41.3708 76.1124 41.5941 75.9441 41.7569L58.8581 58.2376Z" fill="#003A91"/>
<path d="M41.0344 78.9499L39.0602 76.9758C37.2044 75.1199 37.2044 72.1099 39.0602 70.2541L48.0532 61.2611C49.9091 59.4053 52.919 59.4053 54.7749 61.2611L56.7491 63.2353C58.6054 65.0916 58.6054 68.1011 56.7491 69.9575L47.7566 78.9499C45.9002 80.8063 42.8913 80.8063 41.0344 78.9499V78.9499Z" fill="#0066FF"/>
<path d="M44.3953 81.2123C42.9545 81.2123 41.5141 80.6635 40.4174 79.5672L38.4432 77.5936C36.2498 75.3996 36.2498 71.8308 38.4432 69.6368L47.4362 60.6454C48.4985 59.5821 49.9108 58.9968 51.4141 58.9968C52.9168 58.9968 54.3292 59.5826 55.3919 60.6454L57.3656 62.619C59.5596 64.812 59.5596 68.3813 57.3656 70.5743L48.3736 79.5672C47.2769 80.6635 45.8366 81.2123 44.3953 81.2123ZM41.6515 78.3332C43.1662 79.8459 45.6263 79.8444 47.1396 78.3332L56.1316 69.3402C56.8647 68.6071 57.2682 67.6332 57.2682 66.5969C57.2682 65.5601 56.8642 64.5862 56.1316 63.8531L54.1579 61.8794C53.4247 61.1463 52.4504 60.7422 51.4141 60.7422C50.3778 60.7422 49.4034 61.1468 48.6703 61.8794L39.6778 70.8714C38.1646 72.3841 38.1646 74.8463 39.6778 76.3595L41.6515 78.3332Z" fill="#003A91"/>
<path d="M54.2307 55.0828L62.9271 63.7791L60.1099 66.5958L51.414 57.9L54.2307 55.0828Z" fill="#D7E9FF"/>
<path d="M60.1108 67.4693C59.887 67.4693 59.6643 67.3844 59.4935 67.2136L50.7976 58.5183C50.457 58.1772 50.457 57.6248 50.7976 57.2837L53.6149 54.466C53.942 54.1389 54.5218 54.1389 54.8489 54.466L63.5448 63.1628C63.8854 63.5034 63.8854 64.0558 63.5448 64.3969L60.7275 67.2136C60.5567 67.3839 60.334 67.4693 60.1108 67.4693ZM52.649 57.901L60.1108 65.3623L61.6934 63.7796L54.2316 56.3173L52.649 57.901Z" fill="#003A91"/>
<path d="M55.3004 72.2627C55.0771 72.2627 54.8539 72.1778 54.6836 72.007L50.8141 68.1385C50.473 67.7974 50.473 67.2451 50.8141 66.9045C51.1547 66.5634 51.7071 66.5634 52.0482 66.9045L55.9177 70.7729C56.2583 71.1135 56.2583 71.6664 55.9177 72.007C55.7474 72.1778 55.5241 72.2627 55.3004 72.2627V72.2627Z" fill="#003A91"/>
<path d="M52.0765 75.4875C51.8528 75.4875 51.63 75.4021 51.4592 75.2318L48.8792 72.6523C48.5386 72.3117 48.5386 71.7593 48.8792 71.4182C49.2203 71.0776 49.7727 71.0776 50.1133 71.4182L52.6933 73.9977C53.0344 74.3383 53.0344 74.8907 52.6933 75.2318C52.523 75.4021 52.2993 75.4875 52.0765 75.4875Z" fill="#003A91"/>
<path d="M42.5374 75.8136C42.055 75.8136 41.6644 75.4231 41.6644 74.9411V71.4497C41.6644 70.9678 42.055 70.5772 42.5374 70.5772C43.0193 70.5772 43.4099 70.9678 43.4099 71.4497V74.9411C43.4099 75.4231 43.0198 75.8136 42.5374 75.8136Z" fill="white"/>
<path d="M44.2825 74.0681H40.7916C40.3092 74.0681 39.9186 73.6775 39.9186 73.1956C39.9186 72.7131 40.3092 72.3226 40.7916 72.3226H44.2825C44.765 72.3226 45.1555 72.7131 45.1555 73.1956C45.1555 73.6775 44.7655 74.0681 44.2825 74.0681Z" fill="white"/>
</g>
<defs>
<linearGradient id="paint0_linear" x1="46.8013" y1="83.0201" x2="46.604" y2="25.4712" gradientUnits="userSpaceOnUse">
<stop stop-color="#CCCCCC"/>
<stop offset="1" stop-color="#E6E6E6"/>
</linearGradient>
<linearGradient id="paint1_linear" x1="91.554" y1="26.0905" x2="24.4697" y2="19.9223" gradientUnits="userSpaceOnUse">
<stop stop-color="#0036F9"/>
<stop offset="1" stop-color="#00FEB3"/>
</linearGradient>
<linearGradient id="paint2_linear" x1="38.3145" y1="83.4085" x2="37.4156" y2="20.6877" gradientUnits="userSpaceOnUse">
<stop stop-color="#CCCCCC"/>
<stop offset="1" stop-color="#E6E6E6"/>
</linearGradient>
<linearGradient id="paint3_linear" x1="35.6608" y1="83.7456" x2="34.4835" y2="20.4067" gradientUnits="userSpaceOnUse">
<stop stop-color="#CCCCCC"/>
<stop offset="1" stop-color="#F5F2F5"/>
</linearGradient>
<linearGradient id="paint4_linear" x1="51.2576" y1="83.8795" x2="51.3242" y2="30.9856" gradientUnits="userSpaceOnUse">
<stop stop-color="#001AFF"/>
<stop offset="0.46875" stop-color="#008DE9"/>
<stop offset="1" stop-color="#00FFB2"/>
</linearGradient>
<clipPath id="clip0">
<rect x="36.7983" y="30.4733" width="53.9184" height="53.9184" fill="white"/>
</clipPath>
</defs>
</svg>
