<svg width="101" height="101" viewBox="0 0 101 101" fill="none" xmlns="http://www.w3.org/2000/svg">
<path d="M13.8081 24.871C12.2765 24.871 11.0449 26.1062 11.0449 27.6378V80.8536C11.0449 82.3851 12.2765 83.6203 13.8081 83.6203H49.6549H52.1666H88.0134C89.5449 83.6203 90.7766 82.3851 90.7766 80.8536V27.6378C90.7766 26.1062 89.5449 24.871 88.0134 24.871H52.1666H49.6549H13.8081Z" fill="url(#paint0_linear)"/>
<path d="M38.6633 17.2967C38.4495 17.291 38.1913 17.2999 37.8556 17.2999H12.5037C11.7088 17.2999 11.068 17.9453 11.068 18.7454V27.5558C11.0668 27.5891 11.0582 27.6203 11.0582 27.6539V80.938C11.0582 82.4716 12.2946 83.708 13.8282 83.708H88.1996C89.7332 83.708 90.9664 82.4716 90.9664 80.938V27.6539C90.9664 26.1204 89.7332 24.8839 88.1996 24.8839H43.7913C43.7649 24.8487 43.7472 24.8298 43.7193 24.7923C42.6946 23.4118 41.1471 19.6898 40.1383 18.3432C39.531 17.4589 39.3048 17.3135 38.6633 17.2967L38.6633 17.2967Z" fill="url(#paint1_linear)"/>
<path d="M15.7975 20.2886H36.0859C36.663 20.2886 37.1276 20.7532 37.1276 21.3302V23.6407C37.1276 24.2177 36.663 24.6823 36.0859 24.6823H15.7975C15.2205 24.6823 14.7559 24.2177 14.7559 23.6407V21.3302C14.7559 20.7532 15.2205 20.2886 15.7975 20.2886V20.2886Z" fill="url(#paint2_linear)"/>
<path d="M11.8004 27.3596C10.4704 27.3596 9.31047 28.4927 9.40092 29.8905L12.551 78.5702C12.6415 79.968 13.6205 81.1011 14.9505 81.1011H46.0789H55.1981H86.3266C87.6566 81.1011 88.6356 79.968 88.726 78.5702L91.8761 29.8905C91.9665 28.4927 90.8066 27.3596 89.4767 27.3596H55.1981H46.0789H11.8004Z" fill="url(#paint3_linear)"/>
<path opacity="0.3" fill-rule="evenodd" clip-rule="evenodd" d="M14.7064 31.1223C12.6779 31.1223 11.0449 32.7173 11.0449 34.6986L13.5655 75.3359V76.5646C13.5655 77.5714 14.3953 78.3818 15.426 78.3818H85.7482C86.779 78.3818 87.609 77.5714 87.609 76.5646L90.1293 34.6986C90.1293 32.7173 88.4963 31.1223 86.4678 31.1223H14.7063H14.7064Z" fill="black"/>
<path d="M10.849 30.9855C9.48537 30.9855 8.31911 32.1143 8.3888 33.5097L10.7783 81.3553C10.8479 82.7507 11.8748 83.8795 13.2385 83.8795H45.8542H55.2042L88.6189 83.7796C89.9826 83.7755 91.0244 82.6515 91.0791 81.2554L92.9521 33.5097C93.0069 32.1136 91.8555 30.9855 90.4919 30.9855H55.3455H45.9954L10.849 30.9855Z" fill="url(#paint4_linear)"/>
<g clip-path="url(#clip0)">
<path fill-rule="evenodd" clip-rule="evenodd" d="M83.9041 37.5666V41.3661H87.6209V37.5666L85.7625 34.7169L83.9041 37.5666Z" fill="white"/>
<path fill-rule="evenodd" clip-rule="evenodd" d="M83.9041 41.3661H87.6209V75.7502H83.9041V41.3661Z" fill="#FFBECB"/>
<path fill-rule="evenodd" clip-rule="evenodd" d="M87.6209 75.7502H83.9041V79.5498C83.9041 80.5946 84.7405 81.4495 85.7625 81.4495C86.7846 81.4495 87.6209 80.5946 87.6209 79.5498V75.7502Z" fill="white"/>
<path fill-rule="evenodd" clip-rule="evenodd" d="M72.7535 62.8325H80.1872V53.334H72.7535C71.7314 53.334 70.8951 54.1888 70.8951 55.2337V60.9328C70.8951 61.9776 71.7313 62.8325 72.7535 62.8325Z" fill="#FFE0E6"/>
<path fill-rule="evenodd" clip-rule="evenodd" d="M80.1874 62.8324H72.7538C71.7317 62.8324 70.8954 61.9776 70.8954 60.9327V55.2336C70.8954 54.1888 71.7317 53.3339 72.7538 53.3339H80.1874V49.5344H50.453H46.7362V66.6319H50.4531H80.1874V62.8324Z" fill="#FFBECB"/>
<path fill-rule="evenodd" clip-rule="evenodd" d="M80.1875 66.632H50.4531V81.4495H78.329C79.3511 81.4495 80.1874 80.5947 80.1874 79.5498V66.632H80.1875Z" fill="#FFE0E6"/>
<path fill-rule="evenodd" clip-rule="evenodd" d="M50.453 81.4495V66.632H46.7362V79.5498C46.7362 80.5947 47.5723 81.4495 48.5946 81.4495H50.453Z" fill="#FF9EB1"/>
<path fill-rule="evenodd" clip-rule="evenodd" d="M50.4531 49.5345H80.1874V36.6166C80.1874 35.5718 79.3511 34.7169 78.329 34.7169H50.4531V49.5345Z" fill="#FFE0E6"/>
<path fill-rule="evenodd" clip-rule="evenodd" d="M50.4539 49.5345V34.717H48.5955C47.5733 34.717 46.737 35.5718 46.737 36.6167V49.5345H50.4539Z" fill="#FF9EB1"/>
<path d="M76.8489 59.4272C77.5746 58.6854 77.5746 57.4828 76.8489 56.741C76.1233 55.9992 74.9468 55.9992 74.2212 56.741C73.4955 57.4828 73.4955 58.6854 74.2212 59.4272C74.9468 60.169 76.1233 60.169 76.8489 59.4272Z" fill="#FF7D97"/>
<path d="M78.3291 33.7671H48.5946C47.0576 33.7671 45.8071 35.0454 45.8071 36.6166V79.5498C45.8071 81.1211 47.0576 82.3994 48.5946 82.3994H78.3291C79.8662 82.3994 81.1167 81.1211 81.1167 79.5498V36.6166C81.1167 35.0454 79.8662 33.7671 78.3291 33.7671ZM47.6655 50.4843H79.2583H79.2583V52.3841H79.2583H72.7538C71.2168 52.3841 69.9662 53.6624 69.9662 55.2337V60.9328C69.9662 62.504 71.2168 63.7823 72.7538 63.7823H79.2583H79.2583V65.6821H79.2583H47.6655V50.4843ZM79.2583 54.2838V61.8826H79.2583H72.7538C72.2415 61.8826 71.8246 61.4565 71.8246 60.9328V55.2337C71.8246 54.7099 72.2415 54.2838 72.7538 54.2838H79.2583ZM47.6655 36.6166C47.6655 36.0929 48.0822 35.6668 48.5946 35.6668H78.3291C78.8415 35.6668 79.2583 36.0929 79.2583 36.6166V48.5846H79.2583H47.6655V36.6166ZM78.3291 80.4997H48.5946C48.0822 80.4997 47.6655 80.0736 47.6655 79.5498V67.5818H79.2583H79.2583V79.5498C79.2583 80.0736 78.8415 80.4997 78.3291 80.4997Z" fill="#BC0025"/>
<path d="M88.3942 37.0397L86.5358 34.1901C86.3635 33.9258 86.0734 33.7671 85.7626 33.7671C85.4519 33.7671 85.1618 33.9258 84.9895 34.1901L83.1311 37.0397C83.0293 37.1958 82.975 37.3791 82.975 37.5666V79.5499C82.975 81.1211 84.2256 82.3994 85.7626 82.3994C87.2997 82.3994 88.5502 81.1211 88.5502 79.5499V37.5666C88.5502 37.3791 88.496 37.1958 88.3942 37.0397V37.0397ZM86.6918 79.5499C86.6918 80.0736 86.275 80.4997 85.7626 80.4997C85.2503 80.4997 84.8334 80.0736 84.8334 79.5499V37.8542L85.7626 36.4294L86.6918 37.8542V79.5499Z" fill="#BC0025"/>
</g>
<defs>
<linearGradient id="paint0_linear" x1="46.2137" y1="83.0201" x2="46.0163" y2="25.4712" gradientUnits="userSpaceOnUse">
<stop stop-color="#CCCCCC"/>
<stop offset="1" stop-color="#E6E6E6"/>
</linearGradient>
<linearGradient id="paint1_linear" x1="90.9664" y1="28.3265" x2="25.6901" y2="21.2644" gradientUnits="userSpaceOnUse">
<stop stop-color="#FFA134"/>
<stop offset="1" stop-color="#FF2D74" stop-opacity="0.996078"/>
</linearGradient>
<linearGradient id="paint2_linear" x1="37.7269" y1="83.4085" x2="36.828" y2="20.6877" gradientUnits="userSpaceOnUse">
<stop stop-color="#CCCCCC"/>
<stop offset="1" stop-color="#E6E6E6"/>
</linearGradient>
<linearGradient id="paint3_linear" x1="35.0731" y1="83.7456" x2="33.8958" y2="20.4067" gradientUnits="userSpaceOnUse">
<stop stop-color="#CCCCCC"/>
<stop offset="1" stop-color="#F5F2F5"/>
</linearGradient>
<linearGradient id="paint4_linear" x1="45.9663" y1="83.7206" x2="47.5193" y2="25.0423" gradientUnits="userSpaceOnUse">
<stop stop-color="#FFAA2A"/>
<stop offset="1" stop-color="#FA20BD"/>
</linearGradient>
<clipPath id="clip0">
<rect x="43.3914" y="33.7671" width="47.5751" height="48.6323" fill="white"/>
</clipPath>
</defs>
</svg>
