<svg width="100" height="101" viewBox="0 0 100 101" fill="none" xmlns="http://www.w3.org/2000/svg">
<path d="M13.6335 24.871C12.102 24.871 10.8704 26.1062 10.8704 27.6378V80.8536C10.8704 82.3851 12.102 83.6203 13.6335 83.6203H49.4804H51.992H87.8388C89.3704 83.6203 90.602 82.3851 90.602 80.8536V27.6378C90.602 26.1062 89.3704 24.871 87.8388 24.871H51.992H49.4804H13.6335Z" fill="url(#paint0_linear)"/>
<path d="M38.4888 17.2967C38.275 17.291 38.0167 17.2999 37.681 17.2999H12.3291C11.5343 17.2999 10.8934 17.9453 10.8934 18.7454V27.5558C10.8922 27.5891 10.8836 27.6203 10.8836 27.6539V80.938C10.8836 82.4716 12.1201 83.708 13.6536 83.708H88.025C89.5586 83.708 90.7918 82.4716 90.7918 80.938V27.6539C90.7918 26.1204 89.5586 24.8839 88.025 24.8839H43.6167C43.5903 24.8487 43.5727 24.8298 43.5447 24.7923C42.52 23.4118 40.9725 19.6898 39.9637 18.3432C39.3564 17.4589 39.1302 17.3135 38.4888 17.2967L38.4888 17.2967Z" fill="url(#paint1_linear)"/>
<path d="M15.623 20.2886H35.9114C36.4885 20.2886 36.953 20.7532 36.953 21.3302V23.6407C36.953 24.2177 36.4885 24.6823 35.9114 24.6823H15.623C15.0459 24.6823 14.5813 24.2177 14.5813 23.6407V21.3302C14.5813 20.7532 15.0459 20.2886 15.623 20.2886V20.2886Z" fill="url(#paint2_linear)"/>
<path d="M11.6258 27.3596C10.2958 27.3596 9.13589 28.4927 9.22633 29.8905L12.3764 78.5702C12.4669 79.968 13.4459 81.1011 14.7759 81.1011H45.9043H55.0235H86.152C87.482 81.1011 88.461 79.968 88.5515 78.5702L91.7015 29.8905C91.7919 28.4927 90.632 27.3596 89.3021 27.3596H55.0235H45.9043H11.6258Z" fill="url(#paint3_linear)"/>
<path opacity="0.3" fill-rule="evenodd" clip-rule="evenodd" d="M14.5318 31.1223C12.5033 31.1223 10.8704 32.7173 10.8704 34.6986L13.391 75.3359V76.5646C13.391 77.5714 14.2207 78.3818 15.2515 78.3818H85.5737C86.6044 78.3818 87.4344 77.5714 87.4344 76.5646L89.9547 34.6986C89.9547 32.7173 88.3218 31.1223 86.2933 31.1223H14.5318H14.5318Z" fill="black"/>
<path d="M10.6744 30.9855C9.31078 30.9855 8.14452 32.1143 8.21421 33.5097L10.6037 81.3553C10.6734 82.7507 11.7002 83.8795 13.0639 83.8795H45.6796H55.0296L88.4443 83.7796C89.808 83.7755 90.8498 82.6515 90.9046 81.2554L92.7775 33.5097C92.8323 32.1136 91.681 30.9855 90.3173 30.9855H55.1709H45.8209L10.6744 30.9855Z" fill="url(#paint4_linear)"/>
<g clip-path="url(#clip0)">
<path d="M83.974 64.7397H38.6644C37.1002 64.7397 35.8325 63.4714 35.8325 61.9077V38.3088C35.8325 36.7451 37.1002 35.4769 38.6644 35.4769H83.974C85.5377 35.4769 86.8054 36.7451 86.8054 38.3088V61.9077C86.8054 63.4714 85.5377 64.7397 83.974 64.7397Z" fill="#5F0029"/>
<path d="M83.974 65.6832H38.6644C36.5822 65.6832 34.8884 63.9899 34.8884 61.9077V38.3088C34.8884 36.2266 36.5822 34.5332 38.6644 34.5332H83.974C86.0557 34.5332 87.7495 36.2266 87.7495 38.3088V61.9077C87.7495 63.9899 86.0557 65.6832 83.974 65.6832ZM38.6644 36.421C37.6231 36.421 36.7761 37.2679 36.7761 38.3088V61.9077C36.7761 62.948 37.6231 63.7955 38.6644 63.7955H83.974C85.0149 63.7955 85.8618 62.948 85.8618 61.9077V38.3088C85.8618 37.2679 85.0149 36.421 83.974 36.421H38.6644Z" fill="#5F0029"/>
<path d="M83.974 66.6273H38.6644C37.1002 66.6273 35.8325 65.3591 35.8325 63.7954V40.1965C35.8325 38.6328 37.1002 37.3645 38.6644 37.3645H83.974C85.5377 37.3645 86.8054 38.6328 86.8054 40.1965V63.7954C86.8054 65.3591 85.5377 66.6273 83.974 66.6273Z" fill="#A150FF"/>
<path d="M83.974 67.5709H38.6644C36.5822 67.5709 34.8884 65.8776 34.8884 63.7954V40.1964C34.8884 38.1142 36.5822 36.4209 38.6644 36.4209H83.974C86.0557 36.4209 87.7495 38.1142 87.7495 40.1964V63.7954C87.7495 65.8776 86.0557 67.5709 83.974 67.5709ZM38.6644 38.3087C37.6231 38.3087 36.7761 39.1561 36.7761 40.1964V63.7954C36.7761 64.8362 37.6231 65.6831 38.6644 65.6831H83.974C85.0149 65.6831 85.8618 64.8362 85.8618 63.7954V40.1964C85.8618 39.1561 85.0149 38.3087 83.974 38.3087H38.6644Z" fill="#5F0029"/>
<path d="M68.8712 51.5242L54.7122 42.0848V60.9635L68.8712 51.5242Z" fill="#DDA7FF"/>
<path d="M54.7116 61.9077C54.5593 61.9077 54.4054 61.871 54.2666 61.7959C53.9592 61.6317 53.768 61.3119 53.768 60.9636V42.0848C53.768 41.7359 53.9592 41.4162 54.2666 41.2525C54.5723 41.0872 54.945 41.1067 55.235 41.2995L69.3946 50.7388C69.6571 50.9138 69.8148 51.2088 69.8148 51.5242C69.8148 51.8396 69.6571 52.1345 69.3946 52.3095L55.235 61.7489C55.0773 61.8542 54.8948 61.9077 54.7116 61.9077ZM55.6558 43.8484V59.2006L67.1693 51.5242L55.6558 43.8484Z" fill="#5F0029"/>
<path d="M86.8054 72.2913H35.8325C35.3107 72.2913 34.8883 71.8689 34.8883 71.3472C34.8883 70.8254 35.3107 70.403 35.8325 70.403H86.8054C87.3271 70.403 87.7495 70.8254 87.7495 71.3472C87.7495 71.8689 87.3271 72.2913 86.8054 72.2913Z" fill="#5F0029"/>
<path d="M86.8054 76.0667H35.8325C35.3107 76.0667 34.8883 75.6443 34.8883 75.1225C34.8883 74.6008 35.3107 74.1789 35.8325 74.1789H86.8054C87.3271 74.1789 87.7495 74.6008 87.7495 75.1225C87.7495 75.6443 87.3271 76.0667 86.8054 76.0667Z" fill="#5F0029"/>
<path d="M86.8054 79.8428H35.8325C35.3107 79.8428 34.8883 79.4204 34.8883 78.8986C34.8883 78.3769 35.3107 77.9545 35.8325 77.9545H86.8054C87.3271 77.9545 87.7495 78.3769 87.7495 78.8986C87.7495 79.4204 87.3271 79.8428 86.8054 79.8428Z" fill="#5F0029"/>
<path d="M76.4223 41.1407C75.9006 41.1407 75.4782 40.7183 75.4782 40.1966V36.421C75.4782 35.8993 75.9006 35.4769 76.4223 35.4769C76.9436 35.4769 77.3659 35.8993 77.3659 36.421V40.1966C77.3659 40.7183 76.9436 41.1407 76.4223 41.1407Z" fill="white"/>
<path d="M78.3106 39.2528H74.5345C74.0133 39.2528 73.5909 38.8305 73.5909 38.3087C73.5909 37.7869 74.0133 37.3645 74.5345 37.3645H78.3106C78.8318 37.3645 79.2542 37.7869 79.2542 38.3087C79.2542 38.8305 78.8318 39.2528 78.3106 39.2528V39.2528Z" fill="white"/>
<path d="M38.6641 43.9726C38.4226 43.9726 38.1807 43.8803 37.9965 43.6961C37.6276 43.3272 37.6276 42.7298 37.9965 42.3614L40.8284 39.5295C41.1968 39.1606 41.7947 39.1606 42.1631 39.5295C42.5314 39.8979 42.5314 40.4952 42.1631 40.8642L39.3311 43.6961C39.147 43.8803 38.905 43.9726 38.6641 43.9726Z" fill="white"/>
<path d="M39.6077 46.8045C39.3662 46.8045 39.1248 46.7122 38.9406 46.528C38.5717 46.1591 38.5717 45.5617 38.9406 45.1928L43.6603 40.4731C44.0286 40.1047 44.626 40.1047 44.9949 40.4731C45.3633 40.842 45.3633 41.4394 44.9949 41.8083L40.2753 46.528C40.0905 46.7122 39.8491 46.8045 39.6077 46.8045Z" fill="white"/>
</g>
<defs>
<linearGradient id="paint0_linear" x1="46.0391" y1="83.0201" x2="45.8418" y2="25.4712" gradientUnits="userSpaceOnUse">
<stop stop-color="#CCCCCC"/>
<stop offset="1" stop-color="#E6E6E6"/>
</linearGradient>
<linearGradient id="paint1_linear" x1="90.7918" y1="26.9111" x2="28.1767" y2="17.8895" gradientUnits="userSpaceOnUse">
<stop stop-color="#FF7CBC"/>
<stop offset="0.0001" stop-color="#FD7AB6"/>
<stop offset="1" stop-color="#7A28E9"/>
</linearGradient>
<linearGradient id="paint2_linear" x1="37.5523" y1="83.4085" x2="36.6534" y2="20.6877" gradientUnits="userSpaceOnUse">
<stop stop-color="#CCCCCC"/>
<stop offset="1" stop-color="#E6E6E6"/>
</linearGradient>
<linearGradient id="paint3_linear" x1="34.8985" y1="83.7456" x2="33.7212" y2="20.4067" gradientUnits="userSpaceOnUse">
<stop stop-color="#CCCCCC"/>
<stop offset="1" stop-color="#F5F2F5"/>
</linearGradient>
<linearGradient id="paint4_linear" x1="45.7918" y1="83.7206" x2="47.3447" y2="25.0423" gradientUnits="userSpaceOnUse">
<stop stop-color="#FF7BB5"/>
<stop offset="1" stop-color="#7320FA"/>
</linearGradient>
<clipPath id="clip0">
<rect x="34.8884" y="30.7591" width="52.8612" height="52.8612" fill="white"/>
</clipPath>
</defs>
</svg>
